<svg width="257" height="259" viewBox="0 0 257 259" fill="none" xmlns="http://www.w3.org/2000/svg">
<path fill-rule="evenodd" clip-rule="evenodd" d="M22.5516 169.729C10.0967 154.026 12.7297 131.199 28.4326 118.744L134.581 34.5516C150.284 22.0967 173.11 24.7297 185.565 40.4326L233.675 101.089C246.13 116.792 243.497 139.618 227.794 152.073L121.646 236.266C105.943 248.721 83.1166 246.088 70.6617 230.385L22.5516 169.729ZM37.4532 130.117C28.0315 137.59 26.4517 151.286 33.9246 160.708L82.0347 221.364C89.5077 230.786 103.204 232.366 112.625 224.893L218.774 140.7C228.195 133.227 229.775 119.531 222.302 110.109L174.192 49.4533C166.719 40.0315 153.023 38.4517 143.602 45.9247L37.4532 130.117Z" fill="#11CABE"/>
<path fill-rule="evenodd" clip-rule="evenodd" d="M34.5792 184.893C32.0882 181.752 32.6148 177.187 35.7554 174.696L187.396 54.4205C190.536 51.9295 195.102 52.4561 197.593 55.5967C200.084 58.7373 199.557 63.3026 196.417 65.7936L44.776 186.069C41.6354 188.56 37.0701 188.033 34.5792 184.893Z" fill="#11CABE"/>
<path fill-rule="evenodd" clip-rule="evenodd" d="M87.394 204.761C84.903 201.621 85.4296 197.055 88.5702 194.564L134.062 158.482C137.203 155.991 141.768 156.517 144.259 159.658C146.75 162.799 146.224 167.364 143.083 169.855L97.5908 205.937C94.4502 208.428 89.885 207.902 87.394 204.761Z" fill="#11CABE"/>
<circle cx="74.5" cy="23.5" r="21" stroke="#11CABE" stroke-width="5"/>
<path d="M77.3438 12.28L76.8318 27.736H73.0558L72.5118 12.28H77.3438ZM75.0398 35.224C74.2291 35.224 73.5571 34.9787 73.0238 34.488C72.5118 33.976 72.2558 33.3467 72.2558 32.6C72.2558 31.8533 72.5118 31.2347 73.0238 30.744C73.5571 30.232 74.2291 29.976 75.0398 29.976C75.8291 29.976 76.4798 30.232 76.9918 30.744C77.5038 31.2347 77.7598 31.8533 77.7598 32.6C77.7598 33.3467 77.5038 33.976 76.9918 34.488C76.4798 34.9787 75.8291 35.224 75.0398 35.224Z" fill="#11CABE"/>
</svg>
