<svg width="194" height="178" viewBox="0 0 194 178" fill="none" xmlns="http://www.w3.org/2000/svg">
<rect width="194" height="178" rx="20" fill="#11CABE"/>
<path fill-rule="evenodd" clip-rule="evenodd" d="M20 34.4758C20 32.0039 22.0039 30 24.4758 30H41.1855C43.6574 30 45.6613 32.0039 45.6613 34.4758V44.0242C45.6613 46.4961 43.6574 48.5 41.1855 48.5H24.4758C22.0039 48.5 20 46.4961 20 44.0242V34.4758ZM24.4758 31.7903C22.9927 31.7903 21.7903 32.9927 21.7903 34.4758V44.0242C21.7903 45.5073 22.9927 46.7097 24.4758 46.7097H41.1855C42.6686 46.7097 43.871 45.5073 43.871 44.0242V34.4758C43.871 32.9927 42.6686 31.7903 41.1855 31.7903H24.4758Z" fill="white"/>
<path fill-rule="evenodd" clip-rule="evenodd" d="M20 36.8629C20 36.3686 20.4008 35.9678 20.8952 35.9678H44.7661C45.2605 35.9678 45.6613 36.3686 45.6613 36.8629C45.6613 37.3573 45.2605 37.7581 44.7661 37.7581H20.8952C20.4008 37.7581 20 37.3573 20 36.8629Z" fill="white"/>
<path fill-rule="evenodd" clip-rule="evenodd" d="M23.5808 42.8307C23.5808 42.3363 23.9816 41.9355 24.476 41.9355H31.6373C32.1316 41.9355 32.5324 42.3363 32.5324 42.8307C32.5324 43.3251 32.1316 43.7259 31.6373 43.7259H24.476C23.9816 43.7259 23.5808 43.3251 23.5808 42.8307Z" fill="white"/>
<path d="M145.684 30.48V28.986H149.068V42H147.412V30.48H145.684ZM151.486 39.102V37.86L157.804 29.112H159.766V37.68H161.566V39.102H159.766V42H158.146V39.102H151.486ZM158.218 30.822L153.376 37.68H158.218V30.822ZM162.77 30.48V28.986H166.154V42H164.498V30.48H162.77ZM168.536 30.48V28.986H171.92V42H170.264V30.48H168.536Z" fill="white"/>
<path d="M32.45 110.53V121H30.35V114.19L27.545 121H25.955L23.135 114.19V121H21.035V110.53H23.42L26.75 118.315L30.08 110.53H32.45ZM33.9862 116.815C33.9862 115.975 34.1512 115.23 34.4812 114.58C34.8212 113.93 35.2762 113.43 35.8462 113.08C36.4262 112.73 37.0712 112.555 37.7812 112.555C38.4012 112.555 38.9412 112.68 39.4012 112.93C39.8712 113.18 40.2462 113.495 40.5262 113.875V112.69H42.6412V121H40.5262V119.785C40.2562 120.175 39.8812 120.5 39.4012 120.76C38.9312 121.01 38.3862 121.135 37.7662 121.135C37.0662 121.135 36.4262 120.955 35.8462 120.595C35.2762 120.235 34.8212 119.73 34.4812 119.08C34.1512 118.42 33.9862 117.665 33.9862 116.815ZM40.5262 116.845C40.5262 116.335 40.4262 115.9 40.2262 115.54C40.0262 115.17 39.7562 114.89 39.4162 114.7C39.0762 114.5 38.7112 114.4 38.3212 114.4C37.9312 114.4 37.5712 114.495 37.2412 114.685C36.9112 114.875 36.6412 115.155 36.4312 115.525C36.2312 115.885 36.1312 116.315 36.1312 116.815C36.1312 117.315 36.2312 117.755 36.4312 118.135C36.6412 118.505 36.9112 118.79 37.2412 118.99C37.5812 119.19 37.9412 119.29 38.3212 119.29C38.7112 119.29 39.0762 119.195 39.4162 119.005C39.7562 118.805 40.0262 118.525 40.2262 118.165C40.4262 117.795 40.5262 117.355 40.5262 116.845ZM47.8722 121.135C47.1922 121.135 46.5822 121.015 46.0422 120.775C45.5022 120.525 45.0722 120.19 44.7522 119.77C44.4422 119.35 44.2722 118.885 44.2422 118.375H46.3572C46.3972 118.695 46.5522 118.96 46.8222 119.17C47.1022 119.38 47.4472 119.485 47.8572 119.485C48.2572 119.485 48.5672 119.405 48.7872 119.245C49.0172 119.085 49.1322 118.88 49.1322 118.63C49.1322 118.36 48.9922 118.16 48.7122 118.03C48.4422 117.89 48.0072 117.74 47.4072 117.58C46.7872 117.43 46.2772 117.275 45.8772 117.115C45.4872 116.955 45.1472 116.71 44.8572 116.38C44.5772 116.05 44.4372 115.605 44.4372 115.045C44.4372 114.585 44.5672 114.165 44.8272 113.785C45.0972 113.405 45.4772 113.105 45.9672 112.885C46.4672 112.665 47.0522 112.555 47.7222 112.555C48.7122 112.555 49.5022 112.805 50.0922 113.305C50.6822 113.795 51.0072 114.46 51.0672 115.3H49.0572C49.0272 114.97 48.8872 114.71 48.6372 114.52C48.3972 114.32 48.0722 114.22 47.6622 114.22C47.2822 114.22 46.9872 114.29 46.7772 114.43C46.5772 114.57 46.4772 114.765 46.4772 115.015C46.4772 115.295 46.6172 115.51 46.8972 115.66C47.1772 115.8 47.6122 115.945 48.2022 116.095C48.8022 116.245 49.2972 116.4 49.6872 116.56C50.0772 116.72 50.4122 116.97 50.6922 117.31C50.9822 117.64 51.1322 118.08 51.1422 118.63C51.1422 119.11 51.0072 119.54 50.7372 119.92C50.4772 120.3 50.0972 120.6 49.5972 120.82C49.1072 121.03 48.5322 121.135 47.8722 121.135ZM55.3111 114.415V118.435C55.3111 118.715 55.3761 118.92 55.5061 119.05C55.6461 119.17 55.8761 119.23 56.1961 119.23H57.1711V121H55.8511C54.0811 121 53.1961 120.14 53.1961 118.42V114.415H52.2061V112.69H53.1961V110.635H55.3111V112.69H57.1711V114.415H55.3111ZM66.4065 116.665C66.4065 116.965 66.3865 117.235 66.3465 117.475H60.2715C60.3215 118.075 60.5315 118.545 60.9015 118.885C61.2715 119.225 61.7265 119.395 62.2665 119.395C63.0465 119.395 63.6015 119.06 63.9315 118.39H66.1965C65.9565 119.19 65.4965 119.85 64.8165 120.37C64.1365 120.88 63.3015 121.135 62.3115 121.135C61.5115 121.135 60.7915 120.96 60.1515 120.61C59.5215 120.25 59.0265 119.745 58.6665 119.095C58.3165 118.445 58.1415 117.695 58.1415 116.845C58.1415 115.985 58.3165 115.23 58.6665 114.58C59.0165 113.93 59.5065 113.43 60.1365 113.08C60.7665 112.73 61.4915 112.555 62.3115 112.555C63.1015 112.555 63.8065 112.725 64.4265 113.065C65.0565 113.405 65.5415 113.89 65.8815 114.52C66.2315 115.14 66.4065 115.855 66.4065 116.665ZM64.2315 116.065C64.2215 115.525 64.0265 115.095 63.6465 114.775C63.2665 114.445 62.8015 114.28 62.2515 114.28C61.7315 114.28 61.2915 114.44 60.9315 114.76C60.5815 115.07 60.3665 115.505 60.2865 116.065H64.2315ZM70.0393 113.98C70.3093 113.54 70.6593 113.195 71.0893 112.945C71.5293 112.695 72.0293 112.57 72.5893 112.57V114.775H72.0343C71.3743 114.775 70.8743 114.93 70.5343 115.24C70.2043 115.55 70.0393 116.09 70.0393 116.86V121H67.9393V112.69H70.0393V113.98ZM73.4637 116.845C73.4637 115.985 73.6388 115.235 73.9888 114.595C74.3388 113.945 74.8238 113.445 75.4438 113.095C76.0638 112.735 76.7738 112.555 77.5738 112.555C78.6038 112.555 79.4538 112.815 80.1238 113.335C80.8038 113.845 81.2588 114.565 81.4888 115.495H79.2238C79.1038 115.135 78.8988 114.855 78.6088 114.655C78.3288 114.445 77.9788 114.34 77.5588 114.34C76.9588 114.34 76.4838 114.56 76.1338 115C75.7838 115.43 75.6088 116.045 75.6088 116.845C75.6088 117.635 75.7838 118.25 76.1338 118.69C76.4838 119.12 76.9588 119.335 77.5588 119.335C78.4088 119.335 78.9638 118.955 79.2238 118.195H81.4888C81.2588 119.095 80.8038 119.81 80.1238 120.34C79.4438 120.87 78.5938 121.135 77.5738 121.135C76.7738 121.135 76.0638 120.96 75.4438 120.61C74.8238 120.25 74.3388 119.75 73.9888 119.11C73.6388 118.46 73.4637 117.705 73.4637 116.845ZM82.4872 116.815C82.4872 115.975 82.6522 115.23 82.9822 114.58C83.3222 113.93 83.7772 113.43 84.3472 113.08C84.9272 112.73 85.5722 112.555 86.2822 112.555C86.9022 112.555 87.4422 112.68 87.9022 112.93C88.3722 113.18 88.7472 113.495 89.0272 113.875V112.69H91.1422V121H89.0272V119.785C88.7572 120.175 88.3822 120.5 87.9022 120.76C87.4322 121.01 86.8872 121.135 86.2672 121.135C85.5672 121.135 84.9272 120.955 84.3472 120.595C83.7772 120.235 83.3222 119.73 82.9822 119.08C82.6522 118.42 82.4872 117.665 82.4872 116.815ZM89.0272 116.845C89.0272 116.335 88.9272 115.9 88.7272 115.54C88.5272 115.17 88.2572 114.89 87.9172 114.7C87.5772 114.5 87.2122 114.4 86.8222 114.4C86.4322 114.4 86.0722 114.495 85.7422 114.685C85.4122 114.875 85.1422 115.155 84.9322 115.525C84.7322 115.885 84.6322 116.315 84.6322 116.815C84.6322 117.315 84.7322 117.755 84.9322 118.135C85.1422 118.505 85.4122 118.79 85.7422 118.99C86.0822 119.19 86.4422 119.29 86.8222 119.29C87.2122 119.29 87.5772 119.195 87.9172 119.005C88.2572 118.805 88.5272 118.525 88.7272 118.165C88.9272 117.795 89.0272 117.355 89.0272 116.845ZM95.2932 113.98C95.5632 113.54 95.9132 113.195 96.3432 112.945C96.7832 112.695 97.2832 112.57 97.8432 112.57V114.775H97.2882C96.6282 114.775 96.1282 114.93 95.7882 115.24C95.4582 115.55 95.2932 116.09 95.2932 116.86V121H93.1932V112.69H95.2932V113.98ZM98.7177 116.815C98.7177 115.975 98.8827 115.23 99.2127 114.58C99.5527 113.93 100.013 113.43 100.593 113.08C101.173 112.73 101.818 112.555 102.528 112.555C103.068 112.555 103.583 112.675 104.073 112.915C104.563 113.145 104.953 113.455 105.243 113.845V109.9H107.373V121H105.243V119.77C104.983 120.18 104.618 120.51 104.148 120.76C103.678 121.01 103.133 121.135 102.513 121.135C101.813 121.135 101.173 120.955 100.593 120.595C100.013 120.235 99.5527 119.73 99.2127 119.08C98.8827 118.42 98.7177 117.665 98.7177 116.815ZM105.258 116.845C105.258 116.335 105.158 115.9 104.958 115.54C104.758 115.17 104.488 114.89 104.148 114.7C103.808 114.5 103.443 114.4 103.053 114.4C102.663 114.4 102.303 114.495 101.973 114.685C101.643 114.875 101.373 115.155 101.163 115.525C100.963 115.885 100.863 116.315 100.863 116.815C100.863 117.315 100.963 117.755 101.163 118.135C101.373 118.505 101.643 118.79 101.973 118.99C102.313 119.19 102.673 119.29 103.053 119.29C103.443 119.29 103.808 119.195 104.148 119.005C104.488 118.805 104.758 118.525 104.958 118.165C105.158 117.795 105.258 117.355 105.258 116.845Z" fill="white"/>
<path d="M27.602 139.098C27.602 139.91 27.322 140.587 26.762 141.128C26.2113 141.66 25.3667 141.926 24.228 141.926H22.352V146H21.078V136.242H24.228C25.3293 136.242 26.1647 136.508 26.734 137.04C27.3127 137.572 27.602 138.258 27.602 139.098ZM24.228 140.876C24.9373 140.876 25.46 140.722 25.796 140.414C26.132 140.106 26.3 139.667 26.3 139.098C26.3 137.894 25.6093 137.292 24.228 137.292H22.352V140.876H24.228ZM30.4594 135.64V146H29.1854V135.64H30.4594ZM32.1547 142.136C32.1547 141.352 32.3134 140.666 32.6307 140.078C32.9481 139.481 33.3821 139.019 33.9327 138.692C34.4927 138.365 35.1134 138.202 35.7947 138.202C36.4667 138.202 37.0501 138.347 37.5447 138.636C38.0394 138.925 38.4081 139.289 38.6507 139.728V138.328H39.9387V146H38.6507V144.572C38.3987 145.02 38.0207 145.393 37.5167 145.692C37.0221 145.981 36.4434 146.126 35.7807 146.126C35.0994 146.126 34.4834 145.958 33.9327 145.622C33.3821 145.286 32.9481 144.815 32.6307 144.208C32.3134 143.601 32.1547 142.911 32.1547 142.136ZM38.6507 142.15C38.6507 141.571 38.5341 141.067 38.3007 140.638C38.0674 140.209 37.7501 139.882 37.3487 139.658C36.9567 139.425 36.5227 139.308 36.0467 139.308C35.5707 139.308 35.1367 139.42 34.7447 139.644C34.3527 139.868 34.0401 140.195 33.8067 140.624C33.5734 141.053 33.4567 141.557 33.4567 142.136C33.4567 142.724 33.5734 143.237 33.8067 143.676C34.0401 144.105 34.3527 144.437 34.7447 144.67C35.1367 144.894 35.5707 145.006 36.0467 145.006C36.5227 145.006 36.9567 144.894 37.3487 144.67C37.7501 144.437 38.0674 144.105 38.3007 143.676C38.5341 143.237 38.6507 142.729 38.6507 142.15ZM43.6457 139.378V143.9C43.6457 144.273 43.725 144.539 43.8837 144.698C44.0423 144.847 44.3177 144.922 44.7097 144.922H45.6477V146H44.4997C43.7903 146 43.2583 145.837 42.9037 145.51C42.549 145.183 42.3717 144.647 42.3717 143.9V139.378H41.3777V138.328H42.3717V136.396H43.6457V138.328H45.6477V139.378H43.6457ZM47.8493 137.082C47.6066 137.082 47.4013 136.998 47.2333 136.83C47.0653 136.662 46.9813 136.457 46.9813 136.214C46.9813 135.971 47.0653 135.766 47.2333 135.598C47.4013 135.43 47.6066 135.346 47.8493 135.346C48.0826 135.346 48.2786 135.43 48.4373 135.598C48.6053 135.766 48.6893 135.971 48.6893 136.214C48.6893 136.457 48.6053 136.662 48.4373 136.83C48.2786 136.998 48.0826 137.082 47.8493 137.082ZM48.4653 138.328V146H47.1913V138.328H48.4653ZM54.3746 138.188C55.3079 138.188 56.0639 138.473 56.6426 139.042C57.2213 139.602 57.5106 140.414 57.5106 141.478V146H56.2506V141.66C56.2506 140.895 56.0593 140.311 55.6766 139.91C55.2939 139.499 54.7713 139.294 54.1086 139.294C53.4366 139.294 52.8999 139.504 52.4986 139.924C52.1066 140.344 51.9106 140.955 51.9106 141.758V146H50.6366V138.328H51.9106V139.42C52.1626 139.028 52.5033 138.725 52.9326 138.51C53.3713 138.295 53.8519 138.188 54.3746 138.188ZM66.3957 138.328V146H65.1217V144.866C64.879 145.258 64.5383 145.566 64.0997 145.79C63.6703 146.005 63.1943 146.112 62.6717 146.112C62.0743 146.112 61.5377 145.991 61.0617 145.748C60.5857 145.496 60.2077 145.123 59.9277 144.628C59.657 144.133 59.5217 143.531 59.5217 142.822V138.328H60.7817V142.654C60.7817 143.41 60.973 143.993 61.3557 144.404C61.7383 144.805 62.261 145.006 62.9237 145.006C63.605 145.006 64.1417 144.796 64.5337 144.376C64.9257 143.956 65.1217 143.345 65.1217 142.542V138.328H66.3957ZM77.7728 138.188C78.3701 138.188 78.9021 138.314 79.3688 138.566C79.8354 138.809 80.2041 139.177 80.4748 139.672C80.7454 140.167 80.8808 140.769 80.8808 141.478V146H79.6208V141.66C79.6208 140.895 79.4294 140.311 79.0468 139.91C78.6734 139.499 78.1648 139.294 77.5208 139.294C76.8581 139.294 76.3308 139.509 75.9388 139.938C75.5468 140.358 75.3508 140.969 75.3508 141.772V146H74.0908V141.66C74.0908 140.895 73.8994 140.311 73.5168 139.91C73.1434 139.499 72.6348 139.294 71.9908 139.294C71.3281 139.294 70.8008 139.509 70.4088 139.938C70.0168 140.358 69.8208 140.969 69.8208 141.772V146H68.5468V138.328H69.8208V139.434C70.0728 139.033 70.4088 138.725 70.8288 138.51C71.2581 138.295 71.7294 138.188 72.2428 138.188C72.8868 138.188 73.4561 138.333 73.9508 138.622C74.4454 138.911 74.8141 139.336 75.0568 139.896C75.2714 139.355 75.6261 138.935 76.1208 138.636C76.6154 138.337 77.1661 138.188 77.7728 138.188Z" fill="white" fill-opacity="0.8"/>
<circle cx="126.5" cy="36.5" r="3.5" fill="white"/>
<circle cx="116.5" cy="36.5" r="3.5" fill="white"/>
<circle cx="106.5" cy="36.5" r="3.5" fill="white"/>
<circle cx="96.5" cy="36.5" r="3.5" fill="white"/>
<circle cx="150.5" cy="140.5" r="13.5" fill="#FFCD00"/>
<circle cx="135.5" cy="140.5" r="13.5" fill="#FE5024"/>
</svg>
