<svg width="194" height="178" viewBox="0 0 194 178" fill="none" xmlns="http://www.w3.org/2000/svg">
<rect width="194" height="178" rx="20" fill="#11CABE"/>
<path fill-rule="evenodd" clip-rule="evenodd" d="M20 34.4758C20 32.0039 22.0039 30 24.4758 30H41.1855C43.6574 30 45.6613 32.0039 45.6613 34.4758V44.0242C45.6613 46.4961 43.6574 48.5 41.1855 48.5H24.4758C22.0039 48.5 20 46.4961 20 44.0242V34.4758ZM24.4758 31.7903C22.9927 31.7903 21.7903 32.9927 21.7903 34.4758V44.0242C21.7903 45.5073 22.9927 46.7097 24.4758 46.7097H41.1855C42.6686 46.7097 43.871 45.5073 43.871 44.0242V34.4758C43.871 32.9927 42.6686 31.7903 41.1855 31.7903H24.4758Z" fill="white"/>
<path fill-rule="evenodd" clip-rule="evenodd" d="M20 36.8629C20 36.3686 20.4008 35.9678 20.8952 35.9678H44.7661C45.2605 35.9678 45.6613 36.3686 45.6613 36.8629C45.6613 37.3573 45.2605 37.7581 44.7661 37.7581H20.8952C20.4008 37.7581 20 37.3573 20 36.8629Z" fill="white"/>
<path fill-rule="evenodd" clip-rule="evenodd" d="M23.5808 42.8307C23.5808 42.3363 23.9816 41.9355 24.476 41.9355H31.6373C32.1316 41.9355 32.5324 42.3363 32.5324 42.8307C32.5324 43.3251 32.1316 43.7259 31.6373 43.7259H24.476C23.9816 43.7259 23.5808 43.3251 23.5808 42.8307Z" fill="white"/>
<path d="M146.116 35.358C146.116 33.294 146.452 31.686 147.124 30.534C147.796 29.37 148.972 28.788 150.652 28.788C152.32 28.788 153.49 29.37 154.162 30.534C154.834 31.686 155.17 33.294 155.17 35.358C155.17 37.458 154.834 39.09 154.162 40.254C153.49 41.418 152.32 42 150.652 42C148.972 42 147.796 41.418 147.124 40.254C146.452 39.09 146.116 37.458 146.116 35.358ZM153.55 35.358C153.55 34.314 153.478 33.432 153.334 32.712C153.202 31.98 152.92 31.392 152.488 30.948C152.068 30.504 151.456 30.282 150.652 30.282C149.836 30.282 149.212 30.504 148.78 30.948C148.36 31.392 148.078 31.98 147.934 32.712C147.802 33.432 147.736 34.314 147.736 35.358C147.736 36.438 147.802 37.344 147.934 38.076C148.078 38.808 148.36 39.396 148.78 39.84C149.212 40.284 149.836 40.506 150.652 40.506C151.456 40.506 152.068 40.284 152.488 39.84C152.92 39.396 153.202 38.808 153.334 38.076C153.478 37.344 153.55 36.438 153.55 35.358ZM157.023 39.102V37.86L163.341 29.112H165.303V37.68H167.103V39.102H165.303V42H163.683V39.102H157.023ZM163.755 30.822L158.913 37.68H163.755V30.822ZM168.307 30.48V28.986H171.691V42H170.035V30.48H168.307ZM174.073 30.48V28.986H177.457V42H175.801V30.48H174.073Z" fill="white"/>
<path d="M32.45 110.53V121H30.35V114.19L27.545 121H25.955L23.135 114.19V121H21.035V110.53H23.42L26.75 118.315L30.08 110.53H32.45ZM33.9862 116.815C33.9862 115.975 34.1512 115.23 34.4812 114.58C34.8212 113.93 35.2762 113.43 35.8462 113.08C36.4262 112.73 37.0712 112.555 37.7812 112.555C38.4012 112.555 38.9412 112.68 39.4012 112.93C39.8712 113.18 40.2462 113.495 40.5262 113.875V112.69H42.6412V121H40.5262V119.785C40.2562 120.175 39.8812 120.5 39.4012 120.76C38.9312 121.01 38.3862 121.135 37.7662 121.135C37.0662 121.135 36.4262 120.955 35.8462 120.595C35.2762 120.235 34.8212 119.73 34.4812 119.08C34.1512 118.42 33.9862 117.665 33.9862 116.815ZM40.5262 116.845C40.5262 116.335 40.4262 115.9 40.2262 115.54C40.0262 115.17 39.7562 114.89 39.4162 114.7C39.0762 114.5 38.7112 114.4 38.3212 114.4C37.9312 114.4 37.5712 114.495 37.2412 114.685C36.9112 114.875 36.6412 115.155 36.4312 115.525C36.2312 115.885 36.1312 116.315 36.1312 116.815C36.1312 117.315 36.2312 117.755 36.4312 118.135C36.6412 118.505 36.9112 118.79 37.2412 118.99C37.5812 119.19 37.9412 119.29 38.3212 119.29C38.7112 119.29 39.0762 119.195 39.4162 119.005C39.7562 118.805 40.0262 118.525 40.2262 118.165C40.4262 117.795 40.5262 117.355 40.5262 116.845ZM47.8722 121.135C47.1922 121.135 46.5822 121.015 46.0422 120.775C45.5022 120.525 45.0722 120.19 44.7522 119.77C44.4422 119.35 44.2722 118.885 44.2422 118.375H46.3572C46.3972 118.695 46.5522 118.96 46.8222 119.17C47.1022 119.38 47.4472 119.485 47.8572 119.485C48.2572 119.485 48.5672 119.405 48.7872 119.245C49.0172 119.085 49.1322 118.88 49.1322 118.63C49.1322 118.36 48.9922 118.16 48.7122 118.03C48.4422 117.89 48.0072 117.74 47.4072 117.58C46.7872 117.43 46.2772 117.275 45.8772 117.115C45.4872 116.955 45.1472 116.71 44.8572 116.38C44.5772 116.05 44.4372 115.605 44.4372 115.045C44.4372 114.585 44.5672 114.165 44.8272 113.785C45.0972 113.405 45.4772 113.105 45.9672 112.885C46.4672 112.665 47.0522 112.555 47.7222 112.555C48.7122 112.555 49.5022 112.805 50.0922 113.305C50.6822 113.795 51.0072 114.46 51.0672 115.3H49.0572C49.0272 114.97 48.8872 114.71 48.6372 114.52C48.3972 114.32 48.0722 114.22 47.6622 114.22C47.2822 114.22 46.9872 114.29 46.7772 114.43C46.5772 114.57 46.4772 114.765 46.4772 115.015C46.4772 115.295 46.6172 115.51 46.8972 115.66C47.1772 115.8 47.6122 115.945 48.2022 116.095C48.8022 116.245 49.2972 116.4 49.6872 116.56C50.0772 116.72 50.4122 116.97 50.6922 117.31C50.9822 117.64 51.1322 118.08 51.1422 118.63C51.1422 119.11 51.0072 119.54 50.7372 119.92C50.4772 120.3 50.0972 120.6 49.5972 120.82C49.1072 121.03 48.5322 121.135 47.8722 121.135ZM55.3111 114.415V118.435C55.3111 118.715 55.3761 118.92 55.5061 119.05C55.6461 119.17 55.8761 119.23 56.1961 119.23H57.1711V121H55.8511C54.0811 121 53.1961 120.14 53.1961 118.42V114.415H52.2061V112.69H53.1961V110.635H55.3111V112.69H57.1711V114.415H55.3111ZM66.4065 116.665C66.4065 116.965 66.3865 117.235 66.3465 117.475H60.2715C60.3215 118.075 60.5315 118.545 60.9015 118.885C61.2715 119.225 61.7265 119.395 62.2665 119.395C63.0465 119.395 63.6015 119.06 63.9315 118.39H66.1965C65.9565 119.19 65.4965 119.85 64.8165 120.37C64.1365 120.88 63.3015 121.135 62.3115 121.135C61.5115 121.135 60.7915 120.96 60.1515 120.61C59.5215 120.25 59.0265 119.745 58.6665 119.095C58.3165 118.445 58.1415 117.695 58.1415 116.845C58.1415 115.985 58.3165 115.23 58.6665 114.58C59.0165 113.93 59.5065 113.43 60.1365 113.08C60.7665 112.73 61.4915 112.555 62.3115 112.555C63.1015 112.555 63.8065 112.725 64.4265 113.065C65.0565 113.405 65.5415 113.89 65.8815 114.52C66.2315 115.14 66.4065 115.855 66.4065 116.665ZM64.2315 116.065C64.2215 115.525 64.0265 115.095 63.6465 114.775C63.2665 114.445 62.8015 114.28 62.2515 114.28C61.7315 114.28 61.2915 114.44 60.9315 114.76C60.5815 115.07 60.3665 115.505 60.2865 116.065H64.2315ZM70.0393 113.98C70.3093 113.54 70.6593 113.195 71.0893 112.945C71.5293 112.695 72.0293 112.57 72.5893 112.57V114.775H72.0343C71.3743 114.775 70.8743 114.93 70.5343 115.24C70.2043 115.55 70.0393 116.09 70.0393 116.86V121H67.9393V112.69H70.0393V113.98ZM73.4637 116.845C73.4637 115.985 73.6388 115.235 73.9888 114.595C74.3388 113.945 74.8238 113.445 75.4438 113.095C76.0638 112.735 76.7738 112.555 77.5738 112.555C78.6038 112.555 79.4538 112.815 80.1238 113.335C80.8038 113.845 81.2588 114.565 81.4888 115.495H79.2238C79.1038 115.135 78.8988 114.855 78.6088 114.655C78.3288 114.445 77.9788 114.34 77.5588 114.34C76.9588 114.34 76.4838 114.56 76.1338 115C75.7838 115.43 75.6088 116.045 75.6088 116.845C75.6088 117.635 75.7838 118.25 76.1338 118.69C76.4838 119.12 76.9588 119.335 77.5588 119.335C78.4088 119.335 78.9638 118.955 79.2238 118.195H81.4888C81.2588 119.095 80.8038 119.81 80.1238 120.34C79.4438 120.87 78.5938 121.135 77.5738 121.135C76.7738 121.135 76.0638 120.96 75.4438 120.61C74.8238 120.25 74.3388 119.75 73.9888 119.11C73.6388 118.46 73.4637 117.705 73.4637 116.845ZM82.4872 116.815C82.4872 115.975 82.6522 115.23 82.9822 114.58C83.3222 113.93 83.7772 113.43 84.3472 113.08C84.9272 112.73 85.5722 112.555 86.2822 112.555C86.9022 112.555 87.4422 112.68 87.9022 112.93C88.3722 113.18 88.7472 113.495 89.0272 113.875V112.69H91.1422V121H89.0272V119.785C88.7572 120.175 88.3822 120.5 87.9022 120.76C87.4322 121.01 86.8872 121.135 86.2672 121.135C85.5672 121.135 84.9272 120.955 84.3472 120.595C83.7772 120.235 83.3222 119.73 82.9822 119.08C82.6522 118.42 82.4872 117.665 82.4872 116.815ZM89.0272 116.845C89.0272 116.335 88.9272 115.9 88.7272 115.54C88.5272 115.17 88.2572 114.89 87.9172 114.7C87.5772 114.5 87.2122 114.4 86.8222 114.4C86.4322 114.4 86.0722 114.495 85.7422 114.685C85.4122 114.875 85.1422 115.155 84.9322 115.525C84.7322 115.885 84.6322 116.315 84.6322 116.815C84.6322 117.315 84.7322 117.755 84.9322 118.135C85.1422 118.505 85.4122 118.79 85.7422 118.99C86.0822 119.19 86.4422 119.29 86.8222 119.29C87.2122 119.29 87.5772 119.195 87.9172 119.005C88.2572 118.805 88.5272 118.525 88.7272 118.165C88.9272 117.795 89.0272 117.355 89.0272 116.845ZM95.2932 113.98C95.5632 113.54 95.9132 113.195 96.3432 112.945C96.7832 112.695 97.2832 112.57 97.8432 112.57V114.775H97.2882C96.6282 114.775 96.1282 114.93 95.7882 115.24C95.4582 115.55 95.2932 116.09 95.2932 116.86V121H93.1932V112.69H95.2932V113.98ZM98.7177 116.815C98.7177 115.975 98.8827 115.23 99.2127 114.58C99.5527 113.93 100.013 113.43 100.593 113.08C101.173 112.73 101.818 112.555 102.528 112.555C103.068 112.555 103.583 112.675 104.073 112.915C104.563 113.145 104.953 113.455 105.243 113.845V109.9H107.373V121H105.243V119.77C104.983 120.18 104.618 120.51 104.148 120.76C103.678 121.01 103.133 121.135 102.513 121.135C101.813 121.135 101.173 120.955 100.593 120.595C100.013 120.235 99.5527 119.73 99.2127 119.08C98.8827 118.42 98.7177 117.665 98.7177 116.815ZM105.258 116.845C105.258 116.335 105.158 115.9 104.958 115.54C104.758 115.17 104.488 114.89 104.148 114.7C103.808 114.5 103.443 114.4 103.053 114.4C102.663 114.4 102.303 114.495 101.973 114.685C101.643 114.875 101.373 115.155 101.163 115.525C100.963 115.885 100.863 116.315 100.863 116.815C100.863 117.315 100.963 117.755 101.163 118.135C101.373 118.505 101.643 118.79 101.973 118.99C102.313 119.19 102.673 119.29 103.053 119.29C103.443 119.29 103.808 119.195 104.148 119.005C104.488 118.805 104.758 118.525 104.958 118.165C105.158 117.795 105.258 117.355 105.258 116.845Z" fill="white"/>
<path d="M28.47 139.07C28.1993 138.501 27.8073 138.062 27.294 137.754C26.7807 137.437 26.1833 137.278 25.502 137.278C24.8207 137.278 24.2047 137.437 23.654 137.754C23.1127 138.062 22.6833 138.51 22.366 139.098C22.058 139.677 21.904 140.349 21.904 141.114C21.904 141.879 22.058 142.551 22.366 143.13C22.6833 143.709 23.1127 144.157 23.654 144.474C24.2047 144.782 24.8207 144.936 25.502 144.936C26.454 144.936 27.238 144.651 27.854 144.082C28.47 143.513 28.8293 142.743 28.932 141.772H25.04V140.736H30.29V141.716C30.2153 142.519 29.9633 143.256 29.534 143.928C29.1047 144.591 28.54 145.118 27.84 145.51C27.14 145.893 26.3607 146.084 25.502 146.084C24.5967 146.084 23.7707 145.874 23.024 145.454C22.2773 145.025 21.6847 144.432 21.246 143.676C20.8167 142.92 20.602 142.066 20.602 141.114C20.602 140.162 20.8167 139.308 21.246 138.552C21.6847 137.787 22.2773 137.194 23.024 136.774C23.7707 136.345 24.5967 136.13 25.502 136.13C26.538 136.13 27.4527 136.387 28.246 136.9C29.0487 137.413 29.632 138.137 29.996 139.07H28.47ZM35.3205 146.126C34.6018 146.126 33.9485 145.963 33.3605 145.636C32.7818 145.309 32.3245 144.847 31.9885 144.25C31.6618 143.643 31.4985 142.943 31.4985 142.15C31.4985 141.366 31.6665 140.675 32.0025 140.078C32.3478 139.471 32.8145 139.009 33.4025 138.692C33.9905 138.365 34.6485 138.202 35.3765 138.202C36.1045 138.202 36.7625 138.365 37.3505 138.692C37.9385 139.009 38.4005 139.467 38.7365 140.064C39.0818 140.661 39.2545 141.357 39.2545 142.15C39.2545 142.943 39.0772 143.643 38.7225 144.25C38.3772 144.847 37.9058 145.309 37.3085 145.636C36.7112 145.963 36.0485 146.126 35.3205 146.126ZM35.3205 145.006C35.7778 145.006 36.2072 144.899 36.6085 144.684C37.0098 144.469 37.3318 144.147 37.5745 143.718C37.8265 143.289 37.9525 142.766 37.9525 142.15C37.9525 141.534 37.8312 141.011 37.5885 140.582C37.3458 140.153 37.0285 139.835 36.6365 139.63C36.2445 139.415 35.8198 139.308 35.3625 139.308C34.8958 139.308 34.4665 139.415 34.0745 139.63C33.6918 139.835 33.3838 140.153 33.1505 140.582C32.9172 141.011 32.8005 141.534 32.8005 142.15C32.8005 142.775 32.9125 143.303 33.1365 143.732C33.3698 144.161 33.6778 144.483 34.0605 144.698C34.4432 144.903 34.8632 145.006 35.3205 145.006ZM42.2036 135.64V146H40.9296V135.64H42.2036ZM43.8989 142.136C43.8989 141.352 44.0575 140.666 44.3749 140.078C44.6922 139.481 45.1262 139.019 45.6769 138.692C46.2369 138.365 46.8622 138.202 47.5529 138.202C48.1502 138.202 48.7055 138.342 49.2189 138.622C49.7322 138.893 50.1242 139.252 50.3949 139.7V135.64H51.6829V146H50.3949V144.558C50.1429 145.015 49.7695 145.393 49.2749 145.692C48.7802 145.981 48.2015 146.126 47.5389 146.126C46.8575 146.126 46.2369 145.958 45.6769 145.622C45.1262 145.286 44.6922 144.815 44.3749 144.208C44.0575 143.601 43.8989 142.911 43.8989 142.136ZM50.3949 142.15C50.3949 141.571 50.2782 141.067 50.0449 140.638C49.8115 140.209 49.4942 139.882 49.0929 139.658C48.7009 139.425 48.2669 139.308 47.7909 139.308C47.3149 139.308 46.8809 139.42 46.4889 139.644C46.0969 139.868 45.7842 140.195 45.5509 140.624C45.3175 141.053 45.2009 141.557 45.2009 142.136C45.2009 142.724 45.3175 143.237 45.5509 143.676C45.7842 144.105 46.0969 144.437 46.4889 144.67C46.8809 144.894 47.3149 145.006 47.7909 145.006C48.2669 145.006 48.7009 144.894 49.0929 144.67C49.4942 144.437 49.8115 144.105 50.0449 143.676C50.2782 143.237 50.3949 142.729 50.3949 142.15Z" fill="white" fill-opacity="0.8"/>
<circle cx="126.5" cy="36.5" r="3.5" fill="white"/>
<circle cx="116.5" cy="36.5" r="3.5" fill="white"/>
<circle cx="106.5" cy="36.5" r="3.5" fill="white"/>
<circle cx="96.5" cy="36.5" r="3.5" fill="white"/>
<circle cx="150.5" cy="140.5" r="13.5" fill="#FFCD00"/>
<circle cx="135.5" cy="140.5" r="13.5" fill="#FE5024"/>
</svg>
