<svg width="367" height="367" fill="none" xmlns="http://www.w3.org/2000/svg">
  <path
    d="M202.438 176.517c-3.287-9.675-13.596-15.06-23.415-12.233-9.819 2.828-15.684 12.871-13.322 22.812 6.889 23.953 32.088 45.446 55.168 63.707a3.83 3.83 0 004.754-6.002c-22.153-17.53-46.303-38.052-52.561-59.822a11.49 11.49 0 1122.084-6.346c4.18 14.544 24.962 32.518 44.734 48.158a3.828 3.828 0 004.754-6.002c-10.45-8.233-38.1-30.111-42.196-44.272z"
    fill="#11CABE" />
  <path
    d="M231.451 166.647c-8.333-25.827-35.825-40.213-61.795-32.336-25.97 7.876-40.838 35.11-33.42 61.215l.016.056c6.285 21.832-7.188 27.886-11.489 29.218a3.828 3.828 0 002.296 7.302c11.704-3.658 23.072-15.961 16.542-38.642-6.435-22.344 6.462-45.675 28.807-52.111l.035-.009c22.092-6.21 45.109 6.31 51.9 28.23.09.299.219.584.382.85.398.659 1.218 2.043 25.82 22.007a3.828 3.828 0 104.829-5.94c-8.943-7.254-22.011-18.04-23.923-19.84z"
    fill="#11CABE" />
  <path
    d="M217.166 172.283c-5.286-18.255-24.337-28.799-42.613-23.585-17.943 5.54-28.358 24.209-23.647 42.387 7.732 35.212 1.953 43.342-13.909 48.296a3.827 3.827 0 002.296 7.302c22.161-6.89 26.976-21.373 19.137-57.25-3.801-14.222 4.247-28.919 18.275-33.378 14.226-4.042 29.044 4.168 33.16 18.372 1.532 5.22 5.596 12.383 36.943 37.194a3.828 3.828 0 004.748-6.002c-28.45-22.505-33.319-29.635-34.39-33.336z"
    fill="#11CABE" />
  <path
    d="M227.699 225.561c-12.952-9.829-34.63-26.271-39.966-44.811a3.827 3.827 0 00-7.356 2.113c6.033 20.99 28.982 38.397 42.692 48.799a101.768 101.768 0 018.037 6.429 3.827 3.827 0 005.411-5.411 100.42 100.42 0 00-8.818-7.119zM206.985 252.182a24.997 24.997 0 00-19.091-12.966c-13.013 0-15.026 22.122-15.31 26.555a3.828 3.828 0 003.578 4.058h.245a3.827 3.827 0 003.827-3.59c.482-7.884 3.498-19.366 7.655-19.366 5.671 0 9.699 5.465 12.934 9.851a41.225 41.225 0 003.497 4.333 3.828 3.828 0 005.408-5.411 33.972 33.972 0 01-2.752-3.464h.009zM172.409 218.916a3.828 3.828 0 00-7.293 2.297c3.276 10.234-3.164 30.32-12.844 33.463a3.828 3.828 0 102.287 7.305l.078-.027c14.726-4.741 21.828-30.323 17.772-43.038z"
    fill="#11CABE" />
  <path
    d="M254.139 166.679c-4.784-1.532-8.543-7.655-12.898-14.644-9.219-14.896-21.854-35.296-57.173-35.296-35.918.042-65.025 29.148-65.067 65.066a3.826 3.826 0 005.762 3.375 3.828 3.828 0 001.892-3.375c.033-31.696 25.72-57.381 57.415-57.412 31.055 0 41.934 17.56 50.675 31.676 5.145 8.305 9.583 15.478 17.034 17.897a3.828 3.828 0 102.444-7.254l-.079-.026-.005-.007zM126.655 212.423a3.826 3.826 0 003.422-5.542 33.938 33.938 0 01-3.422-9.769 3.827 3.827 0 00-7.654 0 39.139 39.139 0 004.232 13.196 3.83 3.83 0 003.422 2.115z"
    fill="#11CABE" />
  <path
    d="M124.665 131.49a3.83 3.83 0 005.261-1.275v-.011c3.323-5.481 19.688-21.12 50.307-21.12 29.424 0 50.359 14.905 54.135 21.12a3.828 3.828 0 006.545-3.973c-5.252-8.65-28.438-24.801-60.679-24.801-34.286 0-52.664 17.905-56.861 24.81a3.828 3.828 0 001.292 5.25z"
    fill="#11CABE" />
  <path
    d="M147.323 101.093a58.647 58.647 0 004.646-2.296c5.757-2.9 9.898-5.023 28.269-5.023a86.823 86.823 0 0136.383 5.826c1.462.551 2.932 1.087 4.47 1.616a3.827 3.827 0 102.496-7.235c-1.484-.513-2.889-1.034-4.301-1.532a94.382 94.382 0 00-39.052-6.329c-20.239 0-25.306 2.602-31.738 5.901-1.293.666-2.67 1.376-4.279 2.09a3.827 3.827 0 102.828 7.114c.101-.04.2-.086.296-.137l-.018.005zM249.31 152.349a3.827 3.827 0 007.292-2.296 96.59 96.59 0 00-8.046-16.151 3.829 3.829 0 00-6.522 4.011 90.738 90.738 0 017.276 14.436zM223.214 251.634a3.837 3.837 0 01-2.374-.826c-23.078-18.273-48.255-39.765-55.145-63.706-2.361-9.942 3.504-19.985 13.323-22.812 9.819-2.828 20.127 2.557 23.415 12.232 4.073 14.153 31.721 36.039 42.104 44.275a3.829 3.829 0 11-4.562 6.147 3.274 3.274 0 01-.184-.146c-19.772-15.646-40.571-33.613-44.741-48.158-1.781-6.061-8.122-9.547-14.193-7.802-6.071 1.745-9.594 8.066-7.883 14.148 6.262 21.77 30.408 42.292 52.561 59.821a3.827 3.827 0 01-2.38 6.828l.059-.001z"
    fill="#11CABE" />
  <path
    d="M125.892 232.256a3.827 3.827 0 01-1.141-7.478c4.279-1.339 17.749-7.394 11.482-29.218a49.757 49.757 0 0134.063-61.572l.038-.011c25.841-7.26 52.809 7.155 61.128 32.674 1.906 1.789 14.973 12.585 23.914 19.841a3.827 3.827 0 01-4.816 5.94c-24.61-19.971-25.429-21.357-25.828-22.015a3.85 3.85 0 01-.375-.842c-6.825-21.997-30.057-34.429-52.145-27.902-22.087 6.526-34.832 29.589-28.604 51.762v.009c6.522 22.666-4.838 34.982-16.55 38.642a3.776 3.776 0 01-1.166.17z"
    fill="#11CABE" />
  <path
    d="M138.139 246.87a3.828 3.828 0 01-1.141-7.478c15.861-4.954 21.633-13.105 13.897-48.296-4.71-18.179 5.703-36.849 23.646-42.393 18.276-5.202 37.322 5.337 42.621 23.586 1.064 3.697 5.925 10.823 34.331 33.314a3.828 3.828 0 11-4.561 6.146 3.68 3.68 0 01-.184-.146c-31.383-24.816-35.45-31.989-36.943-37.194-4.105-14.213-18.935-22.426-33.16-18.365-14.056 4.461-22.109 19.197-18.273 33.436 7.872 35.879 3.056 50.323-19.136 57.239a3.763 3.763 0 01-1.101.147l.004.004z"
    fill="#11CABE" />
  <path
    d="M233.823 239.216a3.823 3.823 0 01-2.705-1.118 102.523 102.523 0 00-8.037-6.438c-13.714-10.403-36.663-27.81-42.695-48.799a3.827 3.827 0 117.32-2.241l.037.128c5.358 18.539 27.001 34.982 39.957 44.812a100.927 100.927 0 018.825 7.126 3.827 3.827 0 01-2.702 6.53zM176.412 269.835h-.245a3.829 3.829 0 01-3.577-4.058c.275-4.432 2.296-26.556 15.31-26.556a25.032 25.032 0 0119.137 12.975 32.872 32.872 0 002.741 3.461 3.828 3.828 0 01-5.411 5.411 40.003 40.003 0 01-3.497-4.324c-3.261-4.403-7.293-9.875-12.967-9.875-4.15 0-7.174 11.478-7.656 19.374a3.828 3.828 0 01-3.835 3.592zM153.447 262.181a3.828 3.828 0 01-1.179-7.471c9.675-3.145 16.075-23.233 12.844-33.467a3.828 3.828 0 117.293-2.296c4.064 12.715-3.062 38.274-17.775 43.08a3.818 3.818 0 01-1.183.154z"
    fill="#11CABE" />
  <path
    d="M122.829 185.632a3.827 3.827 0 01-3.828-3.827c.042-35.919 29.151-65.026 65.07-65.066 35.319 0 47.957 20.4 57.181 35.296 4.356 7.017 8.118 13.089 12.898 14.644a3.826 3.826 0 011.56 6.55 3.829 3.829 0 01-3.847.749l-.078-.026c-7.456-2.419-11.895-9.592-17.04-17.897-8.745-14.102-19.623-31.662-50.674-31.662-31.694.034-57.378 25.718-57.412 57.412a3.825 3.825 0 01-3.83 3.827zM126.655 212.424a3.829 3.829 0 01-3.429-2.114 39.036 39.036 0 01-4.225-13.197 3.828 3.828 0 017.654 0 34.045 34.045 0 003.422 9.77 3.826 3.826 0 01-3.422 5.542v-.001z"
    fill="#11CABE" />
  <path
    d="M237.65 132.048a3.827 3.827 0 01-3.269-1.845c-3.773-6.208-24.716-21.12-54.142-21.12-30.616 0-46.99 15.639-50.314 21.12a3.828 3.828 0 01-6.682-3.732c.046-.081.094-.161.145-.238 4.187-6.899 22.565-24.804 56.852-24.804 32.243 0 55.429 16.151 60.679 24.81a3.825 3.825 0 01-3.269 5.81v-.001z"
    fill="#11CABE" />
  <path
    d="M222.34 101.429a3.808 3.808 0 01-1.248-.207c-1.532-.528-3.016-1.078-4.479-1.615a86.846 86.846 0 00-36.376-5.833c-18.371 0-22.513 2.12-28.23 5.053-1.416.728-2.9 1.485-4.646 2.296a3.833 3.833 0 01-3.099-7.003c1.615-.728 2.986-1.431 4.287-2.097 6.379-3.295 11.454-5.899 31.686-5.899a94.346 94.346 0 0139.039 6.308c1.409.52 2.817 1.048 4.301 1.531a3.828 3.828 0 01-1.238 7.471l.003-.005zM252.959 155.012a3.828 3.828 0 01-3.64-2.663 90.68 90.68 0 00-7.276-14.468 3.83 3.83 0 016.522-4.011 96.547 96.547 0 018.037 16.151 3.826 3.826 0 01-3.643 4.99v.001z"
    fill="#11CABE" />
  <path
    d="M64.07 21.628c-23.44 0-42.442 19.002-42.442 42.442v46.374a8.814 8.814 0 01-8.814 8.813A8.814 8.814 0 014 110.444V64.07C4 30.894 30.894 4 64.07 4h46.374a8.814 8.814 0 018.813 8.814 8.814 8.814 0 01-8.813 8.814H64.069zM21.628 302.93c0 23.44 19.002 42.442 42.442 42.442h46.374a8.814 8.814 0 018.813 8.814 8.814 8.814 0 01-8.813 8.814H64.07C30.894 363 4 336.106 4 302.93v-46.374a8.814 8.814 0 1117.628 0v46.374zM302.931 345.372c23.439 0 42.441-19.002 42.441-42.442v-46.374a8.814 8.814 0 018.814-8.814 8.814 8.814 0 018.814 8.814v46.374c0 33.176-26.894 60.07-60.069 60.07h-46.375a8.814 8.814 0 01-8.813-8.814 8.814 8.814 0 018.813-8.814h46.375zM345.372 64.07c0-23.44-19.002-42.442-42.441-42.442h-46.375a8.814 8.814 0 01-8.813-8.814A8.814 8.814 0 01256.556 4h46.375C336.106 4 363 30.894 363 64.07v46.374a8.814 8.814 0 01-8.814 8.813 8.814 8.814 0 01-8.814-8.813V64.069z"
    fill="#11CABE" stroke-linecap="round" />
</svg>