<svg width="367" height="367" viewBox="0 0 367 367" fill="none" xmlns="http://www.w3.org/2000/svg">
<path d="M202.438 176.517C199.151 166.842 188.842 161.457 179.023 164.284C169.204 167.112 163.339 177.155 165.701 187.096C172.59 211.049 197.789 232.542 220.869 250.803C222.526 252.115 224.934 251.836 226.247 250.179C227.56 248.521 227.28 246.113 225.623 244.801C203.47 227.271 179.32 206.749 173.062 184.979C171.891 181.022 172.933 176.742 175.789 173.765C178.646 170.788 182.88 169.571 186.881 170.578C190.883 171.584 194.037 174.659 195.146 178.633C199.326 193.177 220.108 211.151 239.88 226.791C241.538 228.104 243.945 227.824 245.258 226.167C246.571 224.51 246.292 222.102 244.634 220.789C234.184 212.556 206.534 190.678 202.438 176.517Z" fill="#11CABE"/>
<path d="M231.451 166.647C223.118 140.82 195.626 126.434 169.656 134.311C143.686 142.187 128.818 169.421 136.236 195.526L136.252 195.582C142.537 217.414 129.064 223.468 124.763 224.8C122.78 225.46 121.692 227.587 122.319 229.581C122.946 231.574 125.056 232.696 127.059 232.102C138.763 228.444 150.131 216.141 143.601 193.46C137.166 171.116 150.063 147.785 172.408 141.349L172.443 141.34C194.535 135.13 217.552 147.65 224.343 169.57C224.433 169.869 224.562 170.154 224.725 170.42C225.123 171.079 225.943 172.463 250.545 192.427C251.605 193.301 253.052 193.54 254.337 193.053C255.621 192.566 256.547 191.428 256.761 190.071C256.976 188.714 256.446 187.346 255.374 186.487C246.431 179.233 233.363 168.447 231.451 166.647Z" fill="#11CABE"/>
<path d="M217.166 172.283C211.88 154.028 192.829 143.484 174.553 148.698C156.61 154.238 146.195 172.907 150.906 191.085C158.638 226.297 152.859 234.427 136.997 239.381C135.014 240.04 133.926 242.168 134.553 244.161C135.18 246.155 137.29 247.277 139.293 246.683C161.454 239.793 166.269 225.31 158.43 189.433C154.629 175.211 162.677 160.514 176.705 156.055C190.931 152.013 205.749 160.223 209.865 174.427C211.397 179.647 215.461 186.81 246.808 211.621C248.469 212.865 250.818 212.559 252.105 210.932C253.392 209.305 253.149 206.949 251.556 205.619C223.106 183.114 218.237 175.984 217.166 172.283Z" fill="#11CABE"/>
<path d="M227.699 225.561C214.747 215.732 193.069 199.29 187.733 180.75C187.108 178.773 185.021 177.653 183.027 178.226C181.034 178.798 179.859 180.854 180.377 182.863C186.41 203.853 209.359 221.26 223.069 231.662C225.855 233.668 228.537 235.814 231.106 238.091C232.611 239.52 234.98 239.489 236.447 238.022C237.915 236.554 237.946 234.185 236.517 232.68C233.714 230.143 230.77 227.766 227.699 225.561Z" fill="#11CABE"/>
<path d="M206.985 252.182C203.117 245.006 195.992 240.166 187.894 239.216C174.881 239.216 172.868 261.338 172.584 265.771C172.453 267.879 174.054 269.695 176.162 269.829H176.407C178.431 269.833 180.109 268.26 180.234 266.239C180.716 258.355 183.732 246.873 187.889 246.873C193.56 246.873 197.588 252.338 200.823 256.724C201.89 258.246 203.058 259.693 204.32 261.057C205.83 262.455 208.175 262.41 209.629 260.954C211.083 259.499 211.127 257.154 209.728 255.646C208.736 254.552 207.817 253.395 206.976 252.182H206.985Z" fill="#11CABE"/>
<path d="M172.409 218.916C171.697 217.007 169.615 215.99 167.672 216.602C165.729 217.214 164.606 219.241 165.116 221.213C168.392 231.447 161.952 251.533 152.272 254.676C150.944 255.065 149.929 256.141 149.618 257.49C149.308 258.839 149.75 260.251 150.774 261.182C151.798 262.113 153.245 262.418 154.559 261.981L154.637 261.954C169.363 257.213 176.465 231.631 172.409 218.916Z" fill="#11CABE"/>
<path d="M254.139 166.679C249.355 165.147 245.596 159.024 241.241 152.035C232.022 137.139 219.387 116.739 184.068 116.739C148.15 116.781 119.043 145.887 119.001 181.805C118.974 183.189 119.698 184.48 120.893 185.18C122.088 185.88 123.568 185.88 124.763 185.18C125.958 184.48 126.681 183.189 126.655 181.805C126.688 150.109 152.375 124.424 184.07 124.393C215.125 124.393 226.004 141.953 234.745 156.069C239.89 164.374 244.328 171.547 251.779 173.966C253.082 174.431 254.535 174.157 255.579 173.248C256.623 172.339 257.095 170.938 256.814 169.583C256.533 168.228 255.542 167.13 254.223 166.712L254.144 166.686L254.139 166.679Z" fill="#11CABE"/>
<path d="M126.655 212.423C127.982 212.423 129.215 211.736 129.912 210.606C130.609 209.477 130.672 208.067 130.077 206.881C128.444 203.819 127.289 200.524 126.655 197.112C126.616 195.026 124.914 193.356 122.828 193.356C120.742 193.356 119.041 195.026 119.001 197.112C119.615 201.727 121.049 206.196 123.233 210.308C123.882 211.604 125.206 212.422 126.655 212.423Z" fill="#11CABE"/>
<path d="M124.665 131.49C126.47 132.59 128.825 132.019 129.926 130.215V130.204C133.249 124.723 149.614 109.084 180.233 109.084C209.657 109.084 230.592 123.989 234.368 130.204C235.465 132.011 237.819 132.587 239.627 131.49C241.434 130.393 242.01 128.039 240.913 126.231C235.661 117.581 212.475 101.43 180.234 101.43C145.948 101.43 127.57 119.335 123.373 126.24C122.283 128.047 122.861 130.396 124.665 131.49Z" fill="#11CABE"/>
<path d="M147.323 101.093C149.076 100.328 150.56 99.5616 151.969 98.7966C157.726 95.8961 161.867 93.7744 180.238 93.7744C192.643 93.091 205.05 95.0776 216.621 99.6002C218.083 100.151 219.553 100.687 221.091 101.216C221.493 101.355 221.914 101.428 222.339 101.43C224.212 101.434 225.813 100.082 226.122 98.2348C226.432 96.3875 225.359 94.5875 223.587 93.9808C222.103 93.4676 220.698 92.9475 219.286 92.4494C206.862 87.6045 193.552 85.4473 180.234 86.1201C159.995 86.1201 154.928 88.722 148.496 92.0215C147.203 92.6874 145.826 93.3974 144.217 94.1115C142.927 94.6033 142.002 95.7515 141.796 97.1164C141.59 98.4814 142.134 99.8516 143.221 100.703C144.308 101.553 145.769 101.753 147.045 101.225C147.146 101.185 147.245 101.139 147.341 101.088L147.323 101.093Z" fill="#11CABE"/>
<path d="M249.31 152.349C250.021 154.258 252.103 155.276 254.046 154.664C255.989 154.052 257.113 152.025 256.602 150.053C254.43 144.43 251.736 139.023 248.556 133.902C247.448 132.101 245.09 131.539 243.289 132.647C241.488 133.754 240.926 136.112 242.034 137.913C244.884 142.499 247.319 147.33 249.31 152.349Z" fill="#11CABE"/>
<path d="M223.214 251.634C222.352 251.633 221.516 251.342 220.84 250.808C197.762 232.535 172.585 211.043 165.695 187.102C163.334 177.16 169.199 167.117 179.018 164.29C188.837 161.462 199.145 166.847 202.433 176.522C206.506 190.675 234.154 212.561 244.537 220.797C245.669 221.6 246.278 222.952 246.129 224.331C245.98 225.711 245.096 226.902 243.819 227.444C242.542 227.986 241.071 227.795 239.975 226.944C239.912 226.897 239.85 226.849 239.791 226.798C220.019 211.152 199.22 193.185 195.05 178.64C193.269 172.579 186.928 169.093 180.857 170.838C174.786 172.583 171.263 178.904 172.974 184.986C179.236 206.756 203.382 227.278 225.535 244.807C226.812 245.82 227.308 247.529 226.771 249.067C226.235 250.606 224.784 251.636 223.155 251.635L223.214 251.634Z" fill="#11CABE"/>
<path d="M125.892 232.256C124.005 232.251 122.403 230.871 122.119 229.006C121.834 227.14 122.951 225.346 124.751 224.778C129.03 223.439 142.5 217.384 136.233 195.56C132.585 182.878 134.124 169.266 140.512 157.719C146.9 146.172 157.614 137.636 170.296 133.988L170.334 133.977C196.175 126.717 223.143 141.132 231.462 166.651C233.368 168.44 246.435 179.236 255.376 186.492C256.899 187.854 257.085 190.171 255.798 191.757C254.512 193.344 252.207 193.641 250.56 192.432C225.95 172.461 225.131 171.075 224.732 170.417C224.574 170.153 224.448 169.87 224.357 169.575C217.532 147.578 194.3 135.146 172.212 141.673C150.125 148.199 137.38 171.262 143.608 193.435V193.444C150.13 216.11 138.77 228.426 127.058 232.086C126.681 232.203 126.287 232.261 125.892 232.256Z" fill="#11CABE"/>
<path d="M138.139 246.87C136.252 246.864 134.651 245.485 134.366 243.619C134.082 241.754 135.199 239.96 136.998 239.392C152.859 234.438 158.631 226.287 150.895 191.096C146.185 172.917 156.598 154.247 174.541 148.703C192.817 143.501 211.863 154.04 217.162 172.289C218.226 175.986 223.087 183.112 251.493 205.603C252.625 206.405 253.235 207.757 253.086 209.137C252.937 210.516 252.053 211.707 250.776 212.249C249.499 212.792 248.028 212.6 246.932 211.749C246.869 211.702 246.808 211.654 246.748 211.603C215.365 186.787 211.298 179.614 209.805 174.409C205.7 160.196 190.87 151.983 176.645 156.044C162.589 160.505 154.536 175.241 158.372 189.48C166.244 225.359 161.428 239.803 139.236 246.719C138.878 246.822 138.507 246.872 138.135 246.866L138.139 246.87Z" fill="#11CABE"/>
<path d="M233.823 239.216C232.809 239.217 231.836 238.815 231.118 238.098C228.549 235.819 225.866 233.67 223.081 231.66C209.367 221.257 186.418 203.85 180.386 182.861C179.972 181.55 180.294 180.118 181.229 179.109C182.163 178.1 183.567 177.671 184.906 177.983C186.245 178.295 187.314 179.302 187.706 180.62L187.743 180.748C193.101 199.287 214.744 215.73 227.7 225.56C230.773 227.768 233.719 230.147 236.525 232.686C237.616 233.78 237.942 235.423 237.351 236.852C236.76 238.28 235.369 239.212 233.823 239.216Z" fill="#11CABE"/>
<path d="M176.412 269.835H176.167C174.06 269.7 172.459 267.885 172.59 265.777C172.865 261.345 174.886 239.221 187.9 239.221C196.014 240.164 203.157 245.008 207.037 252.196C207.872 253.41 208.788 254.566 209.778 255.657C211.195 257.163 211.159 259.523 209.697 260.986C208.234 262.449 205.874 262.485 204.367 261.068C203.103 259.71 201.934 258.265 200.87 256.744C197.609 252.341 193.577 246.869 187.903 246.869C183.753 246.869 180.729 258.347 180.247 266.243C180.122 268.267 178.44 269.843 176.412 269.835Z" fill="#11CABE"/>
<path d="M153.447 262.181C151.561 262.184 149.954 260.813 149.66 258.95C149.366 257.088 150.473 255.288 152.268 254.71C161.943 251.565 168.343 231.477 165.112 221.243C164.618 219.917 164.896 218.427 165.834 217.368C166.772 216.309 168.218 215.854 169.593 216.184C170.969 216.515 172.05 217.577 172.405 218.947C176.469 231.662 169.343 257.221 154.63 262.027C154.246 262.14 153.847 262.192 153.447 262.181Z" fill="#11CABE"/>
<path d="M122.829 185.632C120.715 185.632 119.001 183.919 119.001 181.805C119.043 145.886 148.152 116.779 184.071 116.739C219.39 116.739 232.028 137.139 241.252 152.035C245.608 159.052 249.37 165.124 254.15 166.679C255.507 167.043 256.556 168.122 256.881 169.489C257.207 170.856 256.757 172.292 255.71 173.229C254.662 174.166 253.186 174.453 251.863 173.978L251.785 173.952C244.329 171.533 239.89 164.36 234.745 156.055C226 141.953 215.122 124.393 184.071 124.393C152.377 124.427 126.693 150.111 126.659 181.805C126.659 182.82 126.256 183.794 125.537 184.512C124.819 185.23 123.845 185.633 122.829 185.632Z" fill="#11CABE"/>
<path d="M126.655 212.424C125.204 212.426 123.876 211.608 123.226 210.31C121.042 206.198 119.611 201.729 119.001 197.113C119.041 195.028 120.742 193.358 122.828 193.358C124.914 193.358 126.616 195.028 126.655 197.113C127.291 200.525 128.445 203.82 130.077 206.883C130.672 208.069 130.609 209.479 129.912 210.608C129.215 211.737 127.982 212.425 126.655 212.425V212.424Z" fill="#11CABE"/>
<path d="M237.65 132.048C236.313 132.046 235.073 131.347 234.381 130.203C230.608 123.995 209.665 109.083 180.239 109.083C149.623 109.083 133.249 124.722 129.925 130.203C128.865 131.986 126.578 132.6 124.768 131.589C122.957 130.578 122.281 128.308 123.243 126.471C123.289 126.39 123.337 126.31 123.388 126.233C127.575 119.334 145.953 101.429 180.24 101.429C212.483 101.429 235.669 117.58 240.919 126.239C241.635 127.42 241.658 128.895 240.981 130.098C240.304 131.302 239.031 132.047 237.65 132.049V132.048Z" fill="#11CABE"/>
<path d="M222.34 101.429C221.915 101.43 221.493 101.36 221.092 101.222C219.56 100.694 218.076 100.144 216.613 99.6071C205.044 95.0838 192.64 93.0948 180.237 93.7744C161.866 93.7744 157.724 95.8948 152.007 98.8269C150.591 99.5548 149.107 100.312 147.361 101.123C145.451 101.864 143.298 100.973 142.469 99.1002C141.641 97.2277 142.43 95.0347 144.262 94.1198C145.877 93.3919 147.248 92.6888 148.549 92.0229C154.928 88.7275 160.003 86.1242 180.235 86.1242C193.547 85.4452 206.853 87.5948 219.274 92.4315C220.683 92.9516 222.091 93.48 223.575 93.963C225.382 94.5439 226.49 96.3608 226.18 98.2329C225.869 100.105 224.234 101.467 222.337 101.434L222.34 101.429Z" fill="#11CABE"/>
<path d="M252.959 155.012C251.296 155.009 249.825 153.933 249.319 152.349C247.33 147.319 244.895 142.477 242.043 137.881C241.327 136.716 241.286 135.257 241.937 134.054C242.588 132.851 243.831 132.086 245.198 132.048C246.565 132.01 247.849 132.705 248.565 133.87C251.742 138.991 254.433 144.398 256.602 150.021C256.973 151.184 256.767 152.454 256.047 153.44C255.327 154.426 254.18 155.01 252.959 155.011V155.012Z" fill="#11CABE"/>
<path d="M64.0694 21.6278C40.6296 21.6278 21.6278 40.6296 21.6278 64.0695V110.444C21.6278 115.311 17.6817 119.257 12.8139 119.257C7.94612 119.257 4 115.311 4 110.444V64.0695C4 30.894 30.894 4 64.0694 4H110.444C115.311 4 119.257 7.94612 119.257 12.8139C119.257 17.6817 115.311 21.6278 110.444 21.6278H64.0694Z" fill="#11CABE" fill-opacity="0.4" stroke="#F3F5F6" stroke-width="8" stroke-linecap="round"/>
<path d="M21.6278 302.93C21.6278 326.37 40.6296 345.372 64.0695 345.372L110.444 345.372C115.311 345.372 119.257 349.318 119.257 354.186C119.257 359.054 115.311 363 110.444 363L64.0695 363C30.894 363 4 336.106 4 302.93L4 256.556C3.99999 251.688 7.94611 247.742 12.8139 247.742C17.6817 247.742 21.6278 251.688 21.6278 256.556L21.6278 302.93Z" fill="#11CABE" fill-opacity="0.4" stroke="#F3F5F6" stroke-width="8" stroke-linecap="round"/>
<path d="M302.931 345.372C326.37 345.372 345.372 326.37 345.372 302.93L345.372 256.556C345.372 251.688 349.318 247.742 354.186 247.742C359.054 247.742 363 251.688 363 256.556L363 302.93C363 336.106 336.106 363 302.931 363L256.556 363C251.689 363 247.743 359.054 247.743 354.186C247.743 349.318 251.689 345.372 256.556 345.372L302.931 345.372Z" fill="#11CABE" fill-opacity="0.4" stroke="#F3F5F6" stroke-width="8" stroke-linecap="round"/>
<path d="M345.372 64.0694C345.372 40.6296 326.37 21.6278 302.931 21.6278L256.556 21.6278C251.689 21.6278 247.743 17.6817 247.743 12.8139C247.743 7.94611 251.689 3.99999 256.556 4L302.931 4C336.106 4 363 30.894 363 64.0694L363 110.444C363 115.311 359.054 119.257 354.186 119.257C349.318 119.257 345.372 115.311 345.372 110.444L345.372 64.0694Z" fill="#11CABE" fill-opacity="0.4" stroke="#F3F5F6" stroke-width="8" stroke-linecap="round"/>
</svg>
