<svg width="48" height="48" viewBox="0 0 48 48" fill="none" xmlns="http://www.w3.org/2000/svg">
<path d="M45.0021 24.4664C45.0021 22.7397 44.8591 21.4797 44.5497 20.1731H24.4307V27.9663H36.2401C36.0021 29.9031 34.7164 32.8197 31.8592 34.7796L31.8191 35.0405L38.1804 39.87L38.6211 39.9131C42.6686 36.2497 45.0021 30.8597 45.0021 24.4664Z" fill="#4285F4"/>
<path d="M24.4295 44.9999C30.2151 44.9999 35.0721 43.1331 38.6199 39.9132L31.8579 34.7797C30.0485 36.0164 27.6198 36.8797 24.4295 36.8797C18.7628 36.8797 13.9534 33.2165 12.2389 28.1531L11.9876 28.174L5.37312 33.1907L5.28662 33.4264C8.81038 40.2864 16.0485 44.9999 24.4295 44.9999Z" fill="#34A853"/>
<path d="M12.2402 28.1532C11.7878 26.8465 11.526 25.4464 11.526 23.9998C11.526 22.5531 11.7878 21.1531 12.2164 19.8465L12.2044 19.5682L5.50698 14.4709L5.28785 14.5731C3.83554 17.4198 3.0022 20.6165 3.0022 23.9998C3.0022 27.3832 3.83554 30.5797 5.28785 33.4264L12.2402 28.1532Z" fill="#FBBC05"/>
<path d="M24.4296 11.1199C28.4533 11.1199 31.1676 12.8233 32.7152 14.2467L38.7628 8.46C35.0487 5.07668 30.2152 3 24.4296 3C16.0485 3 8.8104 7.7133 5.28662 14.5732L12.2152 19.8466C13.9534 14.7833 18.7629 11.1199 24.4296 11.1199Z" fill="#EB4335"/>
</svg>
