<svg width="96" height="92" viewBox="0 0 96 92" fill="none" xmlns="http://www.w3.org/2000/svg">
<path d="M72.9198 0.36663L12.6855 25.2912C12.2041 25.4904 12.3465 26.2071 12.8675 26.2071H79.0245C79.2874 26.2071 79.5006 25.994 79.5006 25.731V4.7655C79.5006 1.37345 76.0541 -0.930328 72.9198 0.36663Z" fill="#10BCB1"/>
<path d="M0.570557 39.4888C0.570557 31.6012 6.96473 25.207 14.8523 25.207H81.5007C89.3883 25.207 95.7824 31.6012 95.7824 39.4888V77.5736C95.7824 85.4612 89.3883 91.8554 81.5007 91.8554H14.8523C6.96473 91.8554 0.570557 85.4612 0.570557 77.5736V39.4888Z" fill="#11CABE" fill-opacity="0.3"/>
<path fill-rule="evenodd" clip-rule="evenodd" d="M6.52124 49.0101C6.52124 47.0382 8.11978 45.4397 10.0917 45.4397L86.2612 45.4397C88.2331 45.4397 89.8316 47.0382 89.8316 49.0101C89.8316 50.982 88.2331 52.5806 86.2612 52.5806L10.0917 52.5806C8.11978 52.5806 6.52124 50.982 6.52124 49.0101Z" fill="#11CABE"/>
<path fill-rule="evenodd" clip-rule="evenodd" d="M11.282 72.8131C11.282 70.8412 12.8805 69.2427 14.8524 69.2427L43.416 69.2427C45.3879 69.2427 46.9864 70.8412 46.9864 72.8131C46.9864 74.785 45.3879 76.3836 43.416 76.3836L14.8524 76.3836C12.8805 76.3836 11.282 74.785 11.282 72.8131Z" fill="#11CABE"/>
</svg>
