<svg width="57" height="75" viewBox="0 0 57 75" fill="none" xmlns="http://www.w3.org/2000/svg">
<path d="M56.3638 30.1203C57.5169 22.2548 51.5669 17.9981 43.3567 15.1758L46.032 4.48797L39.5746 2.8686L36.9916 13.2788C35.285 12.8624 33.5323 12.446 31.7796 12.0759L34.3625 1.61937L27.9051 0L25.2761 10.6416C23.8462 10.3177 22.4625 9.99383 21.1249 9.66996V9.62369L12.1768 7.40284L10.4702 14.343C10.4702 14.343 15.2671 15.4534 15.1749 15.4997C17.8039 16.1474 18.2652 17.9056 18.1729 19.2936L15.1287 31.4621C15.3132 31.5083 15.5439 31.5546 15.8206 31.6934C15.59 31.6471 15.3594 31.6009 15.1287 31.5083L10.8853 48.5349C10.5624 49.3214 9.73221 50.5244 7.93336 50.0617C7.97949 50.1542 3.22869 48.905 3.22869 48.905L0 56.3541L8.44073 58.4824C10.009 58.8988 11.531 59.269 13.0531 59.6854L10.3779 70.4658L16.8353 72.0851L19.5105 61.3973C21.2633 61.86 23.016 62.3226 24.6764 62.739L22.0474 73.3806L28.5048 75L31.18 64.2196C42.2498 66.3017 50.5521 65.4688 54.0114 55.4287C56.825 47.3782 53.8731 42.7051 48.0614 39.6514C52.351 38.6798 55.5335 35.8575 56.3638 30.1203ZM41.5579 50.9408C39.5746 58.9914 26.014 54.6422 21.6322 53.5318L25.1838 39.235C29.5656 40.3455 43.6796 42.5201 41.5579 50.9408ZM43.5874 29.9815C41.7424 37.3381 30.4881 33.5904 26.8443 32.665L30.073 19.7101C33.7168 20.6354 45.4785 22.3473 43.5874 29.9815Z" fill="#11CABE"/>
</svg>
