<svg width="46" height="75" viewBox="0 0 46 75" fill="none" xmlns="http://www.w3.org/2000/svg">
<path d="M23.0402 0.111829V0.149105C23.0774 0.335487 23.0774 0.559145 23.0774 0.782803V27.659C23.0402 27.8081 22.9283 27.8454 22.8165 27.92C22.0337 28.2927 21.2882 28.6282 20.5054 28.9637C19.4243 29.4483 18.3061 29.9702 17.225 30.4548L13.311 32.244C12.23 32.7286 11.149 33.2132 10.1053 33.6978C8.83787 34.2942 7.53319 34.8534 6.2658 35.4498C5.18478 35.9344 4.10377 36.4563 2.98548 36.9409C2.09085 37.3509 1.19622 37.7237 0.33886 38.1337C0.264307 38.171 0.189755 38.2082 0.115202 38.2082C0.0779257 38.2082 0.0779258 38.2082 0.0406494 38.171L1.04711 36.4935C2.98548 33.2878 4.88657 30.1193 6.82494 26.9135C8.87514 23.4841 10.9626 20.0547 13.0128 16.6252C14.9139 13.4568 16.8523 10.2883 18.7534 7.11978C20.1326 4.80865 21.5491 2.49751 22.9283 0.186382C22.9656 0.111829 23.0029 0.0745527 23.0029 0H23.0402C23.0029 0.0372763 23.0402 0.0745527 23.0402 0.111829Z" fill="#11CABE"/>
<path d="M45.9243 38.1712L45.9615 38.2085L40.4819 41.4515L23.2602 51.628C23.1857 51.6653 23.1111 51.7025 23.0739 51.7398C22.962 51.7398 22.962 51.628 22.962 51.5907V51.2552V28.2184C22.962 28.1066 22.962 27.9575 22.9993 27.8457C23.0366 27.6966 23.1484 27.7339 23.2602 27.7711C23.7448 27.9948 24.2667 28.2185 24.7513 28.4421C26.2051 29.1131 27.6589 29.7841 29.1126 30.4178C30.38 30.9769 31.6101 31.5733 32.8775 32.1325C34.1449 32.6916 35.4123 33.288 36.6797 33.8472C37.7607 34.3318 38.879 34.8536 39.96 35.3382C41.0411 35.8228 42.1594 36.3447 43.2404 36.8293C44.0977 37.202 44.9551 37.6121 45.8124 37.9848C45.8124 38.0967 45.8497 38.134 45.9243 38.1712Z" fill="#11CABE"/>
<path d="M23.037 74.8881C23.037 74.9254 22.9997 74.9626 22.9997 74.9999H22.9624C22.9624 74.9254 22.8879 74.8881 22.8506 74.8135C20.5395 71.5705 18.2283 68.2902 15.9172 65.0471C13.5688 61.7295 11.1831 58.3747 8.83469 55.0571C6.56083 51.8513 4.2497 48.6083 1.97585 45.4025C1.37942 44.5451 0.783002 43.7251 0.186581 42.8677C0.149305 42.7931 0.112028 42.7559 0.0374756 42.644C0.149305 42.644 0.223857 42.7186 0.261134 42.7559C3.50417 44.657 6.70994 46.5581 9.95298 48.4592C13.6806 50.6585 17.371 52.8578 21.0986 55.0571L22.9997 56.1754C23.0743 56.2499 23.0743 56.3245 23.0743 56.399V74.3662C23.0743 74.5526 23.0743 74.739 23.037 74.8881Z" fill="#11CABE"/>
<path d="M0 38.2458V38.2085C1.19284 37.6867 2.34841 37.1275 3.54125 36.6057C5.06958 35.8974 6.59791 35.2264 8.12624 34.5182C9.28181 33.9963 10.4747 33.4372 11.6302 32.9153C13.3449 32.1325 15.0224 31.387 16.7371 30.6042C17.8926 30.0823 19.0482 29.5604 20.2411 29.0013C21.0611 28.6285 21.9185 28.2558 22.7386 27.883C22.8131 27.8457 22.925 27.8084 22.9622 27.7339C22.9995 27.7339 22.9995 27.7712 22.9622 27.8084V51.4789C22.9622 51.5907 22.925 51.7026 22.9995 51.7771C22.925 51.889 22.8504 51.7771 22.8131 51.7399C22.4776 51.5535 22.1421 51.3671 21.8067 51.1434C14.6123 46.8939 7.38072 42.6071 0.186382 38.3576C0.149105 38.3204 0.0745527 38.2831 0 38.2458Z" fill="#11CABE"/>
<path d="M45.8499 42.644H45.8872C45.8872 42.7186 45.8126 42.7931 45.7754 42.8677C38.9165 52.5223 32.0577 62.2141 25.1988 71.8687C24.4906 72.8752 23.745 73.8816 23.0368 74.8881C22.9995 74.8508 22.9995 74.8135 22.9995 74.7762V74.5526V56.4736V56.1381C24.5651 55.2062 26.0934 54.3115 27.6591 53.3796C33.6978 49.8011 39.7366 46.2598 45.7381 42.6813C45.7754 42.7186 45.8126 42.6813 45.8499 42.644Z" fill="#11CABE"/>
<path d="M22.9994 27.8085V27.7339V27.5102V0.447625C22.9994 0.335796 22.9621 0.261243 23.0366 0.149414C30.6037 12.7115 38.1708 25.2364 45.7007 37.7985C45.7752 37.9103 45.887 38.0595 45.9243 38.2086C45.4024 38.0222 44.9179 37.7612 44.4333 37.5376C43.8368 37.2766 43.2031 36.9784 42.6067 36.7175C42.234 36.5311 41.8239 36.382 41.4512 36.1956C40.8175 35.8974 40.1838 35.6365 39.5501 35.3383C39.1773 35.1892 38.8045 35.0028 38.4318 34.8164L35.9715 33.6981C35.5615 33.5117 35.1515 33.3254 34.7041 33.139L32.9149 32.3562C32.5421 32.2071 32.1693 32.0207 31.7966 31.8343L29.3363 30.716C28.9263 30.5296 28.5163 30.3433 28.0689 30.1569L26.2797 29.3741C25.8696 29.1877 25.4969 29.0013 25.0868 28.8149C24.3786 28.4794 23.6703 28.1439 22.9248 27.8457C23.0366 27.8085 22.9994 27.8085 22.9994 27.8085Z" fill="#11CABE"/>
</svg>
