<svg width="34" height="33" viewBox="0 0 34 33" fill="none" xmlns="http://www.w3.org/2000/svg">
<path fill-rule="evenodd" clip-rule="evenodd" d="M0 7.66992C0 3.43394 3.43394 0 7.66992 0H25.4318C29.6678 0 33.1018 3.43394 33.1018 7.66992V16.5509C33.1018 20.7869 29.6678 24.2208 25.4318 24.2208H19.4029L9.16816 32.5366C7.56355 33.8403 5.26933 32.1752 6.01151 30.2455L8.32869 24.2208H7.66992C3.43394 24.2208 0 20.7869 0 16.5509V7.66992ZM7.66992 2.42208C4.77162 2.42208 2.42208 4.77162 2.42208 7.66992V16.5509C2.42208 19.4492 4.77162 21.7987 7.66992 21.7987H8.91646C10.3329 21.7987 11.3088 23.2196 10.8003 24.5417L8.81546 29.7024L17.9868 22.2506C18.3466 21.9583 18.796 21.7987 19.2596 21.7987H25.4318C28.3302 21.7987 30.6797 19.4492 30.6797 16.5509V7.66992C30.6797 4.77162 28.3302 2.42208 25.4318 2.42208H7.66992Z" fill="#16A89E"/>
<path fill-rule="evenodd" clip-rule="evenodd" d="M8.07373 15.5148C8.07373 14.8459 8.61593 14.3037 9.28477 14.3037H23.8172C24.4861 14.3037 25.0283 14.8459 25.0283 15.5148C25.0283 16.1836 24.4861 16.7258 23.8172 16.7258H9.28477C8.61593 16.7258 8.07373 16.1836 8.07373 15.5148Z" fill="#16A89E"/>
<path fill-rule="evenodd" clip-rule="evenodd" d="M8.07373 10.0914C8.07373 9.42257 8.61593 8.88037 9.28477 8.88037H16.551C17.2198 8.88037 17.7621 9.42257 17.7621 10.0914C17.7621 10.7602 17.2198 11.3025 16.551 11.3025H9.28477C8.61593 11.3025 8.07373 10.7602 8.07373 10.0914Z" fill="#16A89E"/>
</svg>
