<svg width="79" height="30" viewBox="0 0 79 30" fill="none" xmlns="http://www.w3.org/2000/svg">
<path d="M2.18783 23.5527L1 22.1988V29C1 29.5523 1.44772 30 2 30H77C77.5523 30 78 29.5523 78 29V3.9759L75.5489 6.63533C75.0958 7.12696 74.2972 7.04404 73.9547 6.46982L71.7009 2.69059C71.4779 2.3167 70.9785 2.22135 70.6335 2.48681C70.2902 2.75094 69.7935 2.65805 69.5688 2.28769L68.7915 1.00616C68.4717 0.478882 67.7555 0.363938 67.2867 0.764656L66.8576 1.13148C66.7097 1.25794 66.528 1.33849 66.335 1.36324L62.1224 1.90341C61.723 1.95463 61.3932 2.24046 61.2858 2.62859L59.4435 9.286C59.185 10.2203 57.8816 10.2771 57.5428 9.36876L56.0212 5.28909C55.8753 4.89792 55.5017 4.63855 55.0842 4.63855H53.7778C53.2914 4.63855 52.8756 4.98854 52.7925 5.4678L52.0464 9.77317C51.9633 10.2524 51.5475 10.6024 51.0611 10.6024H50.3589C50.1853 10.6024 50.0146 10.5572 49.8638 10.4712L48.7746 9.85049C48.2443 9.54832 47.5695 9.78743 47.3478 10.356L45.3939 15.3668C45.1876 15.8959 44.4837 15.9989 44.1345 15.5511C43.7927 15.1128 43.1064 15.2003 42.8854 15.7103L42.8164 15.8695C42.531 16.5282 41.6026 16.5437 41.2954 15.8949L38.7683 10.5579C38.3811 9.73995 37.1931 9.8161 36.9135 10.6768L36.6894 11.3662C36.5263 11.8682 36.0012 12.1569 35.49 12.0258L34.7038 11.8242C34.2012 11.6953 33.6836 11.9722 33.5118 12.4617L31.701 17.6214C31.5723 17.9883 31.2425 18.2473 30.8556 18.2855L28.6868 18.4994C28.3413 18.5335 28.0382 18.7443 27.8861 19.0564L26.6799 21.5311C26.2795 22.3526 25.0777 22.2508 24.8212 21.3737L24.5704 20.5162C24.3369 19.7176 23.287 19.5369 22.7999 20.2115L18.6496 25.9591C18.1783 26.6118 17.1682 26.4684 16.8972 25.7103L15.5613 21.9729C15.2542 21.1136 14.051 21.081 13.6977 21.9223L13.0328 23.5057C12.9381 23.731 12.7643 23.9139 12.5441 24.0198L11.8811 24.3386C11.3247 24.6061 10.6612 24.3106 10.4879 23.7181L9.47882 20.2675C9.35414 19.8412 8.9632 19.5482 8.51902 19.5482H8.32529C7.9522 19.5482 7.61014 19.3405 7.43804 19.0095L7.24381 18.6359C6.83829 17.8559 5.69602 17.9411 5.41069 18.7726L3.88539 23.2177C3.63605 23.9444 2.69449 24.1302 2.18783 23.5527Z" fill="url(#paint0_linear_13_1602)"/>
<path d="M1 22.1988L2.18783 23.5527C2.69449 24.1302 3.63605 23.9444 3.88539 23.2177L5.41069 18.7726C5.69602 17.9411 6.83829 17.8559 7.24381 18.6359L7.43804 19.0095C7.61014 19.3405 7.9522 19.5482 8.32529 19.5482H8.51902C8.9632 19.5482 9.35414 19.8412 9.47882 20.2675L10.4879 23.7181C10.6612 24.3106 11.3247 24.6061 11.8811 24.3386L12.5441 24.0198C12.7643 23.9139 12.9381 23.731 13.0327 23.5057L13.6977 21.9223C14.051 21.081 15.2542 21.1136 15.5613 21.9729L16.8972 25.7103C17.1682 26.4684 18.1783 26.6118 18.6496 25.9591L22.7999 20.2115C23.287 19.5369 24.3369 19.7176 24.5704 20.5162L24.8212 21.3737C25.0777 22.2508 26.2795 22.3526 26.6799 21.5311L27.8861 19.0564C28.0382 18.7443 28.3413 18.5335 28.6868 18.4994L30.8556 18.2855C31.2425 18.2473 31.5723 17.9883 31.701 17.6214L33.5118 12.4617C33.6836 11.9722 34.2012 11.6953 34.7038 11.8242L35.49 12.0258C36.0012 12.1569 36.5263 11.8682 36.6894 11.3662L36.9135 10.6768C37.1931 9.8161 38.3811 9.73995 38.7683 10.5579L41.2954 15.8949C41.6026 16.5437 42.531 16.5282 42.8164 15.8695L42.8854 15.7103C43.1064 15.2003 43.7927 15.1128 44.1345 15.5511V15.5511C44.4837 15.9989 45.1876 15.8959 45.3939 15.3668L47.3478 10.356C47.5695 9.78743 48.2443 9.54832 48.7746 9.85049L49.8638 10.4712C50.0146 10.5572 50.1853 10.6024 50.3589 10.6024H51.0611C51.5475 10.6024 51.9633 10.2524 52.0464 9.77317L52.7925 5.4678C52.8756 4.98854 53.2914 4.63855 53.7778 4.63855H55.0842C55.5017 4.63855 55.8753 4.89792 56.0212 5.28909L57.5428 9.36876C57.8816 10.2771 59.185 10.2203 59.4435 9.286L61.2858 2.62858C61.3932 2.24046 61.723 1.95463 62.1224 1.90341L66.335 1.36324C66.528 1.33849 66.7097 1.25794 66.8576 1.13148L67.2867 0.764656C67.7555 0.363938 68.4717 0.478882 68.7915 1.00616L69.5688 2.28769C69.7935 2.65805 70.2902 2.75094 70.6335 2.48681V2.48681C70.9785 2.22135 71.4779 2.3167 71.7009 2.69059L73.9547 6.46982C74.2972 7.04404 75.0958 7.12696 75.5489 6.63533L78 3.9759" stroke="#FF7C74" stroke-linecap="round"/>
<defs>
<linearGradient id="paint0_linear_13_1602" x1="39.5" y1="0" x2="39.5" y2="30" gradientUnits="userSpaceOnUse">
<stop offset="0.34375" stop-color="#FCE2ED" stop-opacity="0.7"/>
<stop offset="1" stop-color="#FCE2ED" stop-opacity="0"/>
</linearGradient>
</defs>
</svg>
