<svg width="79" height="30" viewBox="0 0 79 30" fill="none" xmlns="http://www.w3.org/2000/svg">
<path d="M2.54194 26.9225L1 25.5918V29C1 29.5523 1.44772 30 2 30H77C77.5523 30 78 29.5523 78 29V15.4898L76.8002 19.2173C76.7347 19.4208 76.6057 19.598 76.4321 19.7228L75.5182 20.38C74.9545 20.7854 74.1594 20.507 73.9716 19.8386L72.482 14.5357C72.3608 14.1042 71.9674 13.8061 71.5192 13.8061H70.9711C70.5148 13.8061 70.1164 13.4973 70.0027 13.0555L69.3791 10.6341C69.1947 9.91772 68.2454 9.76455 67.845 10.3866C67.6889 10.629 67.4203 10.7755 67.132 10.7755H63.8774C63.5941 10.7755 63.3242 10.6554 63.1346 10.445L62.6614 9.92003C62.1719 9.37693 61.2841 9.52556 60.9982 10.1985L59.8878 12.812C59.5156 13.6879 58.246 13.5979 58.0011 12.6784L56.2354 6.05014C56.1791 5.83888 56.0552 5.65188 55.8825 5.51777L53.9157 3.99018C53.6822 3.80883 53.3804 3.74009 53.0914 3.80244L51.1628 4.21853C50.7264 4.31266 50.2806 4.10623 50.0701 3.71263L48.9577 1.63281C48.5827 0.931529 47.5787 0.927455 47.198 1.62567L45.646 4.47165C45.3603 4.99554 44.6018 4.97679 44.3424 4.43943C44.0722 3.87986 43.272 3.88918 43.0149 4.45489L42.0832 6.50526C41.7113 7.32356 40.5327 7.27401 40.2309 6.42739L38.9676 2.88423C38.6427 1.9732 37.3425 2.00811 37.0671 2.93525L35.5503 8.03992C35.4243 8.46417 35.0343 8.7551 34.5918 8.7551H34.2511C33.8142 8.7551 33.4279 9.03878 33.297 9.45566L30.1886 19.3601C30.1533 19.4729 30.0982 19.5785 30.0259 19.672L26.7129 23.9605C26.329 24.4575 25.5875 24.4818 25.1719 24.011L24.3577 23.0888C24.0783 22.7724 23.6302 22.6654 23.238 22.8217L21.0496 23.6933C20.716 23.8262 20.4793 24.1276 20.4294 24.4832L20.1108 26.7513C20.0414 27.245 19.6191 27.6122 19.1205 27.6122H17.6859C17.3393 27.6122 17.0175 27.4328 16.8353 27.138L14.8163 23.8712C14.4357 23.2554 13.5472 23.2355 13.1394 23.8337L10.8257 27.228C10.4594 27.7654 9.6857 27.8156 9.25295 27.3301L7.00418 24.8073C6.58764 24.34 5.84903 24.366 5.46633 24.8614L3.98664 26.7768C3.63599 27.2307 2.97618 27.2972 2.54194 26.9225Z" fill="url(#paint0_linear_13_1586)"/>
<path d="M1 25.5918L2.54195 26.9225C2.97618 27.2972 3.63599 27.2307 3.98664 26.7768L5.46633 24.8614C5.84903 24.366 6.58764 24.34 7.00418 24.8073L9.25295 27.3301C9.6857 27.8156 10.4594 27.7654 10.8257 27.228L13.1394 23.8337C13.5472 23.2355 14.4357 23.2554 14.8164 23.8712L16.8353 27.138C17.0175 27.4328 17.3393 27.6122 17.6859 27.6122H19.1205C19.6191 27.6122 20.0414 27.245 20.1108 26.7513L20.4294 24.4832C20.4793 24.1277 20.716 23.8262 21.0496 23.6933L23.238 22.8217C23.6302 22.6654 24.0783 22.7724 24.3577 23.0888L25.1719 24.011C25.5875 24.4818 26.329 24.4575 26.7129 23.9605L30.0259 19.672C30.0982 19.5785 30.1533 19.4729 30.1886 19.3601L33.297 9.45567C33.4279 9.03878 33.8142 8.7551 34.2511 8.7551H34.5918C35.0343 8.7551 35.4243 8.46417 35.5503 8.03992L37.0671 2.93525C37.3425 2.00811 38.6427 1.9732 38.9676 2.88423L40.2309 6.42739C40.5327 7.27401 41.7113 7.32356 42.0832 6.50526L43.0149 4.45489C43.272 3.88918 44.0722 3.87986 44.3424 4.43943V4.43943C44.6018 4.97679 45.3603 4.99554 45.646 4.47165L47.198 1.62567C47.5787 0.927456 48.5827 0.931529 48.9577 1.63281L50.0701 3.71263C50.2806 4.10623 50.7264 4.31266 51.1628 4.21853L53.0914 3.80244C53.3804 3.74009 53.6822 3.80883 53.9157 3.99018L55.8825 5.51777C56.0552 5.65188 56.1791 5.83888 56.2354 6.05014L58.0011 12.6784C58.246 13.5979 59.5156 13.6879 59.8878 12.812L60.9982 10.1985C61.2841 9.52556 62.1719 9.37693 62.6614 9.92003L63.1346 10.445C63.3242 10.6554 63.5941 10.7755 63.8774 10.7755H67.132C67.4203 10.7755 67.6889 10.629 67.845 10.3866V10.3866C68.2454 9.76455 69.1947 9.91771 69.3791 10.6341L70.0027 13.0555C70.1164 13.4973 70.5148 13.8061 70.9711 13.8061H71.5192C71.9674 13.8061 72.3608 14.1042 72.482 14.5357L73.9717 19.8386C74.1594 20.507 74.9545 20.7854 75.5182 20.38L76.3822 19.7587C76.5861 19.612 76.7274 19.394 76.7779 19.148L77.5417 15.4286" stroke="#11CABE" stroke-linecap="round"/>
<defs>
<linearGradient id="paint0_linear_13_1586" x1="39.5" y1="0" x2="39.5" y2="30" gradientUnits="userSpaceOnUse">
<stop offset="0.260417" stop-color="#BCFFE9" stop-opacity="0.7"/>
<stop offset="1" stop-color="#BCFFE9" stop-opacity="0"/>
</linearGradient>
</defs>
</svg>
