<svg width="79" height="30" viewBox="0 0 79 30" fill="none" xmlns="http://www.w3.org/2000/svg">
<path d="M1.91436 23.2411L1 22.1989V29.0001C1 29.5524 1.44772 30.0001 2 30.0001H77C77.5523 30.0001 78 29.5524 78 29.0001V11.976L75.5489 14.6355C75.0958 15.1271 74.2972 15.0442 73.9547 14.4699L71.7009 10.6907C71.4779 10.3168 70.9785 10.2215 70.6335 10.4869C70.2902 10.7511 69.7935 10.6582 69.5688 10.2878L68.7915 9.00628C68.4717 8.479 67.7555 8.36406 67.2867 8.76477L66.8576 9.1316C66.7097 9.25806 66.528 9.3386 66.335 9.36336L62.1224 9.90353C61.723 9.95475 61.3932 10.2406 61.2858 10.6287L59.7862 16.0478C59.5028 17.072 58.0288 17.0056 57.8386 15.9601L55.9279 5.45965C55.8414 4.98422 55.4273 4.63867 54.9441 4.63867H53.7778C53.2914 4.63867 52.8756 4.98866 52.7925 5.46791L52.0464 9.77328C51.9633 10.2525 51.5475 10.6025 51.0611 10.6025H50.3589C50.1853 10.6025 50.0146 10.5573 49.8638 10.4713L48.7746 9.85061C48.2443 9.54844 47.5695 9.78755 47.3478 10.3561L45.3939 15.367C45.1876 15.896 44.4837 15.999 44.1345 15.5512C43.7927 15.1129 43.1064 15.2004 42.8854 15.7104L42.7974 15.9134C42.5097 16.5775 41.5818 16.6142 41.2425 15.9749L39.0356 11.8164C38.5916 10.9798 37.3415 11.1718 37.169 12.1031L36.6707 14.794C36.5412 15.4931 35.7441 15.8376 35.1463 15.4529L34.966 15.3368C34.3967 14.9705 33.6355 15.2639 33.4593 15.9175L31.9637 21.4654C31.7584 22.227 30.7933 22.4622 30.2607 21.8804L29.0357 20.5425C28.5842 20.0494 27.7852 20.1297 27.4409 20.7029L26.723 21.8979C26.2741 22.6452 25.1507 22.5003 24.906 21.6637L24.5704 20.5164C24.3369 19.7177 23.287 19.537 22.7999 20.2116L18.6496 25.9592C18.1783 26.612 17.1682 26.4685 16.8972 25.7104L15.5613 21.973C15.2542 21.1137 14.051 21.0811 13.6977 21.9225L13.0327 23.5058C12.9381 23.7311 12.7643 23.914 12.5441 24.0199L12.083 24.2416C11.4639 24.5393 10.7359 24.1385 10.6564 23.4562L9.74235 15.6142C9.65845 14.8943 8.62757 14.8554 8.48968 15.5669C8.352 16.2774 7.32304 16.24 7.23722 15.5215L6.99308 13.4771C6.86124 12.3731 5.26945 12.345 5.09866 13.4436L3.65419 22.7352C3.52383 23.5738 2.47403 23.879 1.91436 23.2411Z" fill="url(#paint0_linear_13_1882)"/>
<path d="M1 22.1989L1.94789 23.2793C2.50183 23.9107 3.54026 23.6192 3.68469 22.7918L5.18623 14.1896C5.36273 13.1784 6.82223 13.2022 6.96572 14.2186L7.15202 15.5383C7.25896 16.2958 8.34305 16.3236 8.4886 15.5725V15.5725C8.63445 14.8199 9.72137 14.8498 9.82556 15.6093L10.7955 22.6794C10.8109 22.792 10.8454 22.9011 10.8975 23.0021L11.6658 24.4911C12.0892 25.3115 13.3034 25.169 13.5252 24.2728L13.8981 22.7663C14.1361 21.8049 15.4771 21.7373 15.8104 22.67L16.6254 24.9501C16.9381 25.8249 18.1706 25.8378 18.5015 24.9697L22.5418 14.3708C22.9145 13.3931 24.3484 13.572 24.4695 14.6112L25.1515 20.4625C25.2672 21.4547 26.606 21.6828 27.0437 20.7849L27.1835 20.498C27.557 19.7318 28.6564 19.7541 28.9984 20.5349L30.1218 23.0996C30.5224 24.0141 31.8686 23.8414 32.0254 22.8554L33.1492 15.787C33.3105 14.7723 34.7346 14.678 35.0283 15.6626V15.6626C35.3296 16.6729 36.8007 16.5383 36.9138 15.4902L37.3109 11.8092C37.4192 10.8057 38.777 10.5763 39.2089 11.4885L41.5423 16.4165C41.7533 16.8621 42.391 16.8515 42.587 16.3991V16.3991C42.8156 15.8714 43.592 15.9709 43.6802 16.5391L44.0267 18.7714C44.1993 19.8833 45.7923 19.9071 45.998 18.8008L47.5115 10.6593C47.6372 9.98311 48.3922 9.63272 48.9898 9.97328L49.8638 10.4713C50.0146 10.5573 50.1853 10.6025 50.3589 10.6025H51.0611C51.5475 10.6025 51.9633 10.2525 52.0464 9.77328L52.7925 5.46791C52.8756 4.98866 53.2914 4.63867 53.7778 4.63867H54.9441C55.4273 4.63867 55.8414 4.98422 55.9279 5.45965L57.8386 15.9601C58.0288 17.0056 59.5028 17.072 59.7862 16.0478L61.2858 10.6287C61.3932 10.2406 61.723 9.95475 62.1224 9.90353L66.335 9.36336C66.528 9.3386 66.7097 9.25806 66.8576 9.1316L67.2867 8.76477C67.7555 8.36406 68.4717 8.479 68.7915 9.00628L69.5688 10.2878C69.7935 10.6582 70.2902 10.7511 70.6335 10.4869V10.4869C70.9785 10.2215 71.4779 10.3168 71.7009 10.6907L73.9547 14.4699C74.2972 15.0442 75.0958 15.1271 75.5489 14.6355L78 11.976" stroke="#FF7C74" stroke-linecap="round"/>
<defs>
<linearGradient id="paint0_linear_13_1882" x1="39.5" y1="0.000122255" x2="39.5" y2="30.0001" gradientUnits="userSpaceOnUse">
<stop offset="0.34375" stop-color="#FCE2ED" stop-opacity="0.7"/>
<stop offset="1" stop-color="#FCE2ED" stop-opacity="0"/>
</linearGradient>
</defs>
</svg>
