<?xml version="1.0" encoding="utf-8"?>
<svg xmlns="http://www.w3.org/2000/svg" viewBox="0 0 48 48" width="144" height="144">
  <path d="M9.5 4C6.4802259 4 4 6.4802259 4 9.5L4 16.5 A 1.50015 1.50015 0 1 0 7 16.5L7 9.5C7 8.1017741 8.1017741 7 9.5 7L16.5 7 A 1.50015 1.50015 0 1 0 16.5 4L9.5 4 z M 31.5 4 A 1.50015 1.50015 0 1 0 31.5 7L38.5 7C39.898226 7 41 8.1017741 41 9.5L41 16.5 A 1.50015 1.50015 0 1 0 44 16.5L44 9.5C44 6.4802259 41.519774 4 38.5 4L31.5 4 z M 14.476562 13.978516 A 1.50015 1.50015 0 0 0 13 15.5L13 18.5 A 1.50015 1.50015 0 1 0 16 18.5L16 15.5 A 1.50015 1.50015 0 0 0 14.476562 13.978516 z M 24.476562 13.978516 A 1.50015 1.50015 0 0 0 23 15.5L23 23.5C23 24.346499 22.346499 25 21.5 25 A 1.50015 1.50015 0 1 0 21.5 28C23.967501 28 26 25.967501 26 23.5L26 15.5 A 1.50015 1.50015 0 0 0 24.476562 13.978516 z M 33.476562 13.978516 A 1.50015 1.50015 0 0 0 32 15.5L32 18.5 A 1.50015 1.50015 0 1 0 35 18.5L35 15.5 A 1.50015 1.50015 0 0 0 33.476562 13.978516 z M 5.4765625 29.978516 A 1.50015 1.50015 0 0 0 4 31.5L4 38.5C4 41.519774 6.4802259 44 9.5 44L16.5 44 A 1.50015 1.50015 0 1 0 16.5 41L9.5 41C8.1017741 41 7 39.898226 7 38.5L7 31.5 A 1.50015 1.50015 0 0 0 5.4765625 29.978516 z M 42.476562 29.978516 A 1.50015 1.50015 0 0 0 41 31.5L41 38.5C41 39.898226 39.898226 41 38.5 41L31.5 41 A 1.50015 1.50015 0 1 0 31.5 44L38.5 44C41.519774 44 44 41.519774 44 38.5L44 31.5 A 1.50015 1.50015 0 0 0 42.476562 29.978516 z M 29.5 30.984375 A 1.50015 1.50015 0 0 0 28.458984 31.419922C28.458984 31.419922 26.838717 33 24 33C21.161283 33 19.541016 31.419922 19.541016 31.419922 A 1.50015 1.50015 0 1 0 17.458984 33.580078C17.458984 33.580078 19.992717 36 24 36C28.007283 36 30.541016 33.580078 30.541016 33.580078 A 1.50015 1.50015 0 0 0 29.5 30.984375 z" />
</svg>