<?xml version="1.0" encoding="utf-8"?>
<svg xmlns="http://www.w3.org/2000/svg" viewBox="0 0 48 48" width="144" height="144">
  <path d="M21.5 4 A 1.50015 1.50015 0 0 0 20.185547 4.7773438L9.1855469 24.777344 A 1.50015 1.50015 0 0 0 10.5 27L17.261719 27L11.113281 41.929688 A 1.50015 1.50015 0 0 0 13.560547 43.560547L38.560547 18.560547 A 1.50015 1.50015 0 0 0 37.5 16L31.111328 16L36.794922 6.2558594 A 1.50015 1.50015 0 0 0 35.5 4L21.5 4 z M 22.386719 7L32.888672 7L27.205078 16.744141 A 1.50015 1.50015 0 0 0 28.5 19L33.878906 19L16.742188 36.136719L20.886719 26.070312 A 1.50015 1.50015 0 0 0 19.5 24L13.037109 24L22.386719 7 z" />
</svg>