<?xml version="1.0" encoding="utf-8"?>
<svg xmlns="http://www.w3.org/2000/svg" viewBox="0 0 48 48" width="24" height="24">
  <path d="M9.5 8C6.4802259 8 4 10.480226 4 13.5L4 19.5L4 25.5L4 34.5C4 37.519774 6.4802259 40 9.5 40L38.5 40C41.519774 40 44 37.519774 44 34.5L44 25.5L44 19.5L44 13.5C44 10.480226 41.519774 8 38.5 8L9.5 8 z M 9.5 11L38.5 11C39.898226 11 41 12.101774 41 13.5L41 14.613281C40.247721 14.224692 39.399198 14 38.5 14L9.5 14C8.6008022 14 7.7522792 14.224692 7 14.613281L7 13.5C7 12.101774 8.1017741 11 9.5 11 z M 9.5 17L38.5 17C39.898226 17 41 18.101774 41 19.5L41 20.613281C40.247721 20.224692 39.399198 20 38.5 20L30.181641 20C28.624083 20 27.313703 21.062989 26.845703 22.457031C26.44707 23.640973 25.336001 24.5 24 24.5C22.663999 24.5 21.554001 23.640324 21.15625 22.457031C20.687375 21.065318 19.377871 20 17.820312 20L9.5 20C8.6008022 20 7.7522792 20.224692 7 20.613281L7 19.5C7 18.101774 8.1017741 17 9.5 17 z M 9.5 23L17.820312 23C18.034755 23 18.215375 23.125776 18.3125 23.414062C19.113243 25.793898 21.370615 27.5 24 27.5C26.629999 27.5 28.888087 25.794121 29.689453 23.414062 A 1.50015 1.50015 0 0 0 29.689453 23.412109C29.785453 23.126198 29.967198 23 30.181641 23L38.5 23C39.898226 23 41 24.101774 41 25.5L41 34.5C41 35.898226 39.898226 37 38.5 37L9.5 37C8.1017741 37 7 35.898226 7 34.5L7 25.5C7 24.101774 8.1017741 23 9.5 23 z" />
</svg>